<?xml version="1.0" encoding="utf-8"?>
<!-- Generator: Adobe Illustrator 21.1.0, SVG Export Plug-In . SVG Version: 6.00 Build 0)  -->
<svg version="1.1" xmlns="http://www.w3.org/2000/svg" xmlns:xlink="http://www.w3.org/1999/xlink" x="0px" y="0px"
	 viewBox="0 0 500 743" style="enable-background:new 0 0 500 743;" xml:space="preserve">
<style type="text/css">
	.st0{fill:url(#SVGID_1_);}
	.st1{fill:url(#SVGID_2_);}
	.st2{fill:url(#SVGID_3_);}
	.st3{fill:url(#SVGID_4_);}
	.st4{fill:#013D7E;}
	.st5{opacity:0.1;}
	.st6{fill:url(#SVGID_5_);}
	.st7{fill:url(#SVGID_6_);}
	.st8{fill:url(#SVGID_7_);}
	.st9{fill:url(#SVGID_8_);}
	.st10{fill:url(#SVGID_9_);}
	.st11{fill:url(#SVGID_10_);}
	.st12{fill:url(#SVGID_11_);}
	.st13{fill:url(#SVGID_12_);}
	.st14{fill:url(#SVGID_13_);}
	.st15{fill:url(#SVGID_14_);}
	.st16{fill:url(#SVGID_15_);}
	.st17{fill:url(#SVGID_16_);}
	.st18{fill:url(#SVGID_17_);}
	.st19{fill:url(#SVGID_18_);}
	.st20{fill:url(#SVGID_19_);}
	.st21{fill:url(#SVGID_20_);}
	.st22{fill:url(#SVGID_21_);}
	.st23{fill:url(#SVGID_22_);}
	.st24{fill:url(#SVGID_23_);}
	.st25{fill:url(#SVGID_24_);}
	.st26{fill:url(#SVGID_25_);}
	.st27{fill:url(#SVGID_26_);}
	.st28{fill:url(#SVGID_27_);}
	.st29{fill:url(#SVGID_28_);}
	.st30{fill:#E97B2E;}
	.st31{fill:url(#SVGID_29_);}
	.st32{fill:url(#SVGID_30_);}
	.st33{fill:url(#SVGID_31_);}
	.st34{fill:url(#SVGID_32_);}
	.st35{fill:url(#SVGID_33_);}
	.st36{fill:url(#SVGID_34_);}
	.st37{fill:url(#SVGID_35_);}
	.st38{fill:url(#SVGID_36_);}
	.st39{fill:url(#SVGID_37_);}
	.st40{fill:#0F6FB7;}
	.st41{fill:url(#SVGID_38_);}
	.st42{fill:url(#SVGID_39_);}
	.st43{fill:url(#SVGID_40_);}
	.st44{fill:#2896DB;}
	.st45{fill:url(#SVGID_41_);}
	.st46{fill:url(#SVGID_42_);}
	.st47{fill:url(#SVGID_43_);}
	.st48{fill:url(#SVGID_44_);}
	.st49{fill:url(#SVGID_45_);}
	.st50{fill:url(#SVGID_46_);}
	.st51{fill:url(#SVGID_47_);}
	.st52{fill:url(#SVGID_48_);}
	.st53{fill:url(#SVGID_49_);}
	.st54{fill:url(#SVGID_50_);}
	.st55{fill:#F16A3D;}
	.st56{fill:#2E3191;}
	.st57{fill:#3494C9;}
	.st58{fill:#224099;}
	.st59{fill:url(#SVGID_51_);}
	.st60{fill:url(#SVGID_52_);}
	.st61{fill:url(#SVGID_53_);}
	.st62{fill:url(#SVGID_54_);}
	.st63{fill-rule:evenodd;clip-rule:evenodd;fill:#466689;}
	.st64{fill-rule:evenodd;clip-rule:evenodd;fill:#5C81AC;}
</style>
<g id="BACKGROUND">
</g>
<g id="OBJECTS">
	<g>
		<g>
			<g>
				<linearGradient id="SVGID_1_" gradientUnits="userSpaceOnUse" x1="42.5654" y1="264.3911" x2="133.0709" y2="264.3911">
					<stop  offset="0" style="stop-color:#013D7E"/>
					<stop  offset="0.2404" style="stop-color:#0D71AA"/>
					<stop  offset="0.4771" style="stop-color:#179DCF"/>
					<stop  offset="0.6883" style="stop-color:#1EBCE9"/>
					<stop  offset="0.8663" style="stop-color:#22CFF9"/>
					<stop  offset="0.9897" style="stop-color:#24D6FF"/>
				</linearGradient>
				<path class="st0" d="M133.1,244.4c0-0.6,0-1.3,0-1.9V242h0c-1.2-23.9-21-42.9-45.2-42.9c-25,0-45.3,20.3-45.3,45.3
					s20.3,45.3,45.3,45.3c5.6,0,13-1.8,17.2-7c0.4-0.7,0.8-2.9,0.8-7.4v-21.4c-3.4,6.5-10.2,10.9-18,10.9
					c-11.2,0-20.3-9.1-20.3-20.3s9.1-20.3,20.3-20.3c10.4,0,19,7.8,20.1,17.9h0.1v33.2c0,11.7-5.3,18.6-9.8,22.4
					c-6.6,5.6-15.9,8.1-24.3,6.7c-3.3-0.6-6.3-1.6-9-2.8c-5-2.4-11.1-1.2-14.8,3c-5.4,6.1-3.5,15.8,3.8,19.4
					c4.9,2.4,10.2,4.1,15.7,5c2.9,0.5,5.9,0.7,8.9,0.7c12.9,0,25.7-4.6,35.7-13c12.1-10.2,18.7-24.9,18.7-41.5v-28.8
					C133.1,245.7,133.1,245,133.1,244.4z"/>
				<g>
					<linearGradient id="SVGID_2_" gradientUnits="userSpaceOnUse" x1="100.8797" y1="336.7265" x2="100.8797" y2="211.5063">
						<stop  offset="0" style="stop-color:#013D7E"/>
						<stop  offset="0.2404" style="stop-color:#0D71AA"/>
						<stop  offset="0.4771" style="stop-color:#179DCF"/>
						<stop  offset="0.6883" style="stop-color:#1EBCE9"/>
						<stop  offset="0.8663" style="stop-color:#22CFF9"/>
						<stop  offset="0.9897" style="stop-color:#24D6FF"/>
					</linearGradient>
					<path class="st1" d="M133.1,242.5V242h0c-1.2-23.9-21-42.9-45.2-42.9c-6.8,0-13.3,1.5-19.1,4.3c18.2,2.4,33,15.6,37.8,33
						c0.8,1.8,1.3,3.7,1.5,5.7h0.1v33.2c0,0.8,0,1.5-0.1,2.3v1.6c0,16.6-6.6,31.3-18.7,41.5c-4.5,3.8-9.6,6.8-15,9
						c1.4,0.1,2.9,0.2,4.3,0.2c12.9,0,25.7-4.6,35.7-13c12.1-10.2,18.7-24.9,18.7-41.5v-28.8c0-0.7,0-1.3,0-2
						C133.1,243.7,133.1,243.1,133.1,242.5z"/>
				</g>
				<linearGradient id="SVGID_3_" gradientUnits="userSpaceOnUse" x1="104.3768" y1="201.2098" x2="72.8595" y2="288.0311">
					<stop  offset="0" style="stop-color:#013D7E"/>
					<stop  offset="0.2404" style="stop-color:#0D71AA"/>
					<stop  offset="0.4771" style="stop-color:#179DCF"/>
					<stop  offset="0.6883" style="stop-color:#1EBCE9"/>
					<stop  offset="0.8663" style="stop-color:#22CFF9"/>
					<stop  offset="0.9897" style="stop-color:#24D6FF"/>
				</linearGradient>
				<path class="st2" d="M133.1,242.5V242h0c-1.2-23.9-21-42.9-45.2-42.9c-25,0-45.3,20.3-45.3,45.3c0,5.3,0.9,10.5,2.6,15.2
					c6.3,17.5,23,30,42.6,30c0.4,0,0.9,0,1.3,0c3.1-0.2,6.6-0.9,9.7-2.3c2.5-1.3,4.7-3.1,6.4-5.3c0.3-1.1,0.6-3.2,0.6-6.8v-17.8
					c-0.4-0.5-0.8-1.1-1.2-1.5c-3.7,5.3-9.8,8.8-16.7,8.8c-6,0-11.4-2.6-15.1-6.8c-3.2-3.6-5.1-8.3-5.1-13.5
					c0-10.3,7.7-18.8,17.7-20.1c0.9-0.1,1.7-0.2,2.6-0.2c0.1,0,0.1,0,0.2,0c0.5,0,0.9,0,1.4,0c20.8,0,38.3,14.1,43.6,33.2v-10.9
					c0-0.7,0-1.3,0-2C133.1,243.7,133.1,243.1,133.1,242.5z"/>
				<g>
					<linearGradient id="SVGID_4_" gradientUnits="userSpaceOnUse" x1="75.1721" y1="212.3568" x2="82.3082" y2="295.6105">
						<stop  offset="1.030900e-02" style="stop-color:#24D6FF"/>
						<stop  offset="0.3533" style="stop-color:#19A4D5"/>
						<stop  offset="1" style="stop-color:#013D7E"/>
					</linearGradient>
					<path class="st3" d="M69.5,265.4c-1.7-4.8-2.6-9.9-2.6-15.2c0-3.2,0.3-6.3,1-9.4c0.1-0.8,0.3-1.5,0.5-2.2
						c5-18.7,21.6-32.7,41.7-33.6c-6.6-3.7-14.1-5.9-22.2-5.9c-25,0-45.3,20.3-45.3,45.3c0,5.3,0.9,10.5,2.6,15.2
						c6.3,17.5,23,30,42.6,30c0.4,0,0.9,0,1.3,0c0.2,0,0.5,0,0.7-0.1C80.5,284.2,73.2,275.7,69.5,265.4z"/>
				</g>
			</g>
		</g>
		<g>
			<g>
				<g>
					<path class="st4" d="M144.8,221c3.8-3.3,8.5-4.9,14.1-4.9c5.6,0,10.3,1.6,14.1,4.9c3.7,3.3,5.6,7.3,5.6,12
						c0,4.8-1.7,8.9-5,12.3c4.7,4,7.1,9.2,7.1,15.6c0,5.4-2,10-6,13.8c-4,3.7-9.3,5.6-15.7,5.6c-6.5,0-11.7-1.9-15.7-5.6
						c-4-3.7-6-8.3-6-13.8c0-6.4,2.4-11.7,7.1-15.6c-3.4-3.5-5.1-7.6-5.1-12.3C139.1,228.3,141,224.3,144.8,221z M152.7,266.7
						c1.9,1.4,4,2.1,6.2,2.1c2.2,0,4.3-0.7,6.2-2.1c1.9-1.4,2.8-3.4,2.8-6.1s-0.9-4.7-2.8-6.1c-1.8-1.4-3.9-2.1-6.3-2.1
						c-2.3,0-4.4,0.7-6.3,2.1c-1.8,1.4-2.8,3.5-2.8,6.1S150.8,265.3,152.7,266.7z M153.5,239.6c1.5,1.4,3.4,2.1,5.4,2.1
						c2.1,0,3.9-0.7,5.4-2.1c1.5-1.4,2.3-3.2,2.3-5.3c0-2.1-0.8-3.9-2.3-5.3c-1.5-1.4-3.3-2.1-5.5-2.1c-2.1,0-3.9,0.7-5.5,2.1
						c-1.5,1.4-2.3,3.2-2.3,5.3C151.2,236.4,151.9,238.2,153.5,239.6z"/>
				</g>
			</g>
		</g>
		<g>
			<path class="st4" d="M197.2,267.2c3.2,0,5.7-1.3,7.5-3.8c1.8-2.5,2.8-5.9,3.2-10.3c-3.2,2.5-6.6,3.7-10.2,3.7
				c-4.9,0-8.9-1.9-12.1-5.6c-3.2-3.7-4.9-8.7-4.9-14.8c0-6.1,1.7-11.1,5.2-14.8c3.5-3.7,7.9-5.6,13.2-5.6c3.7,0,6.8,0.8,9.5,2.5
				c2.7,1.6,4.8,3.9,6.3,6.9c2.9,5.7,4.4,12.9,4.4,21.5c0,5.5-0.6,10.4-1.7,14.6c-1.2,4.2-2.7,7.5-4.7,9.9c-4.1,4.9-9,7.3-14.8,7.3
				c-2.4,0-4.8-0.4-7-1.3c-2.2-0.8-3.9-1.7-5-2.5c-1.1-0.8-2.4-1.9-3.9-3.3l5.8-9.5c0.3,0.3,0.8,0.8,1.4,1.3
				c0.6,0.6,1.7,1.3,3.3,2.2C194.2,266.8,195.7,267.2,197.2,267.2z M198.8,245.4c2.3,0,4.2-0.8,5.8-2.3c1.5-1.6,2.3-3.6,2.3-6.2
				c0-2.5-0.7-4.7-2.2-6.6c-1.5-1.8-3.3-2.8-5.6-2.8c-2.2,0-4,0.8-5.5,2.5c-1.4,1.6-2.1,3.7-2.1,6.3c0,2.5,0.6,4.7,1.9,6.5
				C194.7,244.5,196.5,245.4,198.8,245.4z"/>
		</g>
		<g class="st5">
			<g>
				<g>
					<linearGradient id="SVGID_5_" gradientUnits="userSpaceOnUse" x1="137.1519" y1="229.5783" x2="180.622" y2="229.5783">
						<stop  offset="0" style="stop-color:#FFDBE7"/>
						<stop  offset="8.496960e-02" style="stop-color:#F5D3DE"/>
						<stop  offset="0.227" style="stop-color:#DCBDC7"/>
						<stop  offset="0.4086" style="stop-color:#B299A1"/>
						<stop  offset="0.6228" style="stop-color:#77666C"/>
						<stop  offset="0.8616" style="stop-color:#2E272A"/>
						<stop  offset="1" style="stop-color:#000000"/>
					</linearGradient>
					<path class="st6" d="M151.6,236.7c-0.3-0.8-0.4-1.6-0.4-2.4c0-2.1,0.8-3.9,2.3-5.3c1.5-1.4,3.3-2.1,5.5-2.1
						c2.1,0,3.9,0.7,5.5,2.1c1.5,1.4,2.3,3.2,2.3,5.3c0,2.1-0.8,3.9-2.3,5.3c-0.1,0.1-0.2,0.2-0.4,0.3c0.9,0.2,1.8,0.5,2.7,0.7
						c2.9,0.8,5.9,1.6,8.8,2.4c2-2.9,3.1-6.2,3.1-9.9c0-4.8-1.9-8.8-5.6-12c-3.7-3.3-8.4-4.9-14.1-4.9c-5.6,0-10.4,1.6-14.1,4.9
						c-3.8,3.3-5.7,7.2-5.7,12c0,0.2,0,0.5,0,0.7C143.3,234.7,147.4,235.7,151.6,236.7z"/>
				</g>
			</g>
		</g>
		<g class="st5">
			<linearGradient id="SVGID_6_" gradientUnits="userSpaceOnUse" x1="180.622" y1="236.4198" x2="219.2961" y2="236.4198">
				<stop  offset="0" style="stop-color:#FFDBE7"/>
				<stop  offset="8.496960e-02" style="stop-color:#F5D3DE"/>
				<stop  offset="0.227" style="stop-color:#DCBDC7"/>
				<stop  offset="0.4086" style="stop-color:#B299A1"/>
				<stop  offset="0.6228" style="stop-color:#77666C"/>
				<stop  offset="0.8616" style="stop-color:#2E272A"/>
				<stop  offset="1" style="stop-color:#000000"/>
			</linearGradient>
			<path class="st7" d="M215.3,255.4c1.1,0.4,2.2,0.8,3.4,1.2c0.5-2.9,0.7-6.2,0.7-9.6c0-8.6-1.5-15.8-4.4-21.5
				c-1.5-2.9-3.6-5.2-6.3-6.9c-2.7-1.6-5.9-2.5-9.5-2.5c-5.3,0-9.7,1.9-13.2,5.6c-3.5,3.7-5.2,8.7-5.2,14.8c0,3,0.4,5.8,1.2,8.2
				C193.1,248,204.2,251.5,215.3,255.4z M193.6,230c1.4-1.6,3.2-2.5,5.5-2.5c2.2,0,4.1,0.9,5.6,2.8c1.5,1.9,2.2,4,2.2,6.6
				c0,2.5-0.8,4.6-2.3,6.2c-1.5,1.6-3.5,2.3-5.8,2.3c-2.3,0-4.1-0.9-5.4-2.6c-1.3-1.8-1.9-3.9-1.9-6.5
				C191.5,233.7,192.2,231.6,193.6,230z"/>
		</g>
		<g>
			<g>
				<path class="st4" d="M153.7,293.8c-1.6-1.3-3.4-2.1-5.3-2.4v20.7H144v-20.7c-1.9,0.4-3.6,1.2-5.3,2.4l-1.5-4.4
					c2.7-2.1,5.8-3.2,9-3.2c3.2,0,6.4,1.1,9,3.2L153.7,293.8z"/>
				<path class="st4" d="M163.8,291.4v16h3.3v4.7H156v-4.7h3.3v-16H156v-4.7h11.1v4.7H163.8z"/>
				<path class="st4" d="M199.5,296.5v15.6h-4.4v-15.4c0-3.7-1.6-5.4-3.8-5.4c-2.4,0-4.1,1.7-4.1,5.8v15.1h-4.4v-15.4
					c0-3.7-1.5-5.4-3.7-5.4c-2.4,0-4.1,1.7-4.1,5.8v15.1h-4.4v-25.4h4.3v3.1c1.1-2.3,3.1-3.6,5.7-3.6c2.7,0,4.7,1.3,5.7,3.7
					c1.3-2.4,3.6-3.7,6.2-3.7C196.8,286.3,199.5,289.8,199.5,296.5z"/>
				<path class="st4" d="M219.5,310c-1.8,1.6-4.7,2.6-7.8,2.6c-5.9,0-9-3.2-9-7.6c0-2.8,1.3-4.9,3.2-5.9c-1.5-1.1-2.4-3-2.4-5.3
					c0-4,2.7-7.5,8.6-7.5c2.5,0,5,0.7,6.7,1.8l-1.2,4.5c-1.8-1.1-3.5-1.6-5.3-1.6c-3,0-4.3,1.3-4.3,3.2c0,1.7,0.9,2.8,2.9,2.8h5.2
					v4.7h-5.5c-2.2,0-3.5,1-3.5,3c0,1.9,1.4,3.2,4.7,3.2c2.2,0,4.7-0.8,6.3-2.3L219.5,310z"/>
			</g>
		</g>
		<g class="st5">
			<g>
				<linearGradient id="SVGID_7_" gradientUnits="userSpaceOnUse" x1="137.198" y1="292.3022" x2="155.2342" y2="292.3022">
					<stop  offset="0" style="stop-color:#FFDBE7"/>
					<stop  offset="8.496960e-02" style="stop-color:#F5D3DE"/>
					<stop  offset="0.227" style="stop-color:#DCBDC7"/>
					<stop  offset="0.4086" style="stop-color:#B299A1"/>
					<stop  offset="0.6228" style="stop-color:#77666C"/>
					<stop  offset="0.8616" style="stop-color:#2E272A"/>
					<stop  offset="1" style="stop-color:#000000"/>
				</linearGradient>
				<path class="st8" d="M144,291.4v6.9h4.4v-6.9c1.9,0.4,3.6,1.2,5.3,2.4l1.5-4.4c-2.6-2.1-5.8-3.2-9-3.2c-3.2,0-6.3,1.1-9,3.2
					l1.5,4.4C140.4,292.6,142.1,291.8,144,291.4z"/>
				<linearGradient id="SVGID_8_" gradientUnits="userSpaceOnUse" x1="156.0297" y1="292.5201" x2="167.1146" y2="292.5201">
					<stop  offset="0" style="stop-color:#FFDBE7"/>
					<stop  offset="8.496960e-02" style="stop-color:#F5D3DE"/>
					<stop  offset="0.227" style="stop-color:#DCBDC7"/>
					<stop  offset="0.4086" style="stop-color:#B299A1"/>
					<stop  offset="0.6228" style="stop-color:#77666C"/>
					<stop  offset="0.8616" style="stop-color:#2E272A"/>
					<stop  offset="1" style="stop-color:#000000"/>
				</linearGradient>
				<polygon class="st9" points="159.4,298.3 163.8,298.3 163.8,291.4 167.1,291.4 167.1,286.7 156,286.7 156,291.4 159.4,291.4 
									"/>
				<linearGradient id="SVGID_9_" gradientUnits="userSpaceOnUse" x1="170.4548" y1="292.3022" x2="199.4933" y2="292.3022">
					<stop  offset="0" style="stop-color:#FFDBE7"/>
					<stop  offset="8.496960e-02" style="stop-color:#F5D3DE"/>
					<stop  offset="0.227" style="stop-color:#DCBDC7"/>
					<stop  offset="0.4086" style="stop-color:#B299A1"/>
					<stop  offset="0.6228" style="stop-color:#77666C"/>
					<stop  offset="0.8616" style="stop-color:#2E272A"/>
					<stop  offset="1" style="stop-color:#000000"/>
				</linearGradient>
				<path class="st10" d="M174.9,298.3v-1.3c0-4,1.8-5.8,4.1-5.8c2.2,0,3.7,1.7,3.7,5.4v1.6h4.4v-1.3c0-4,1.7-5.8,4.1-5.8
					c2.2,0,3.8,1.7,3.8,5.4v1.6h4.4v-1.8c0-6.7-2.7-10.2-7.2-10.2c-2.6,0-4.9,1.3-6.2,3.7c-1.1-2.4-3.1-3.7-5.7-3.7
					c-2.5,0-4.5,1.3-5.7,3.6v-3.1h-4.3v11.6H174.9z"/>
				<linearGradient id="SVGID_10_" gradientUnits="userSpaceOnUse" x1="202.672" y1="292.3022" x2="219.5313" y2="292.3022">
					<stop  offset="0" style="stop-color:#FFDBE7"/>
					<stop  offset="8.496960e-02" style="stop-color:#F5D3DE"/>
					<stop  offset="0.227" style="stop-color:#DCBDC7"/>
					<stop  offset="0.4086" style="stop-color:#B299A1"/>
					<stop  offset="0.6228" style="stop-color:#77666C"/>
					<stop  offset="0.8616" style="stop-color:#2E272A"/>
					<stop  offset="1" style="stop-color:#000000"/>
				</linearGradient>
				<path class="st11" d="M216.1,298.3V297h-5.2c-2,0-2.9-1-2.9-2.8c0-1.9,1.3-3.2,4.3-3.2c1.8,0,3.6,0.5,5.3,1.6l1.2-4.5
					c-1.8-1.1-4.2-1.8-6.7-1.8c-5.9,0-8.6,3.5-8.6,7.5c0,1.8,0.6,3.4,1.6,4.5H216.1z"/>
			</g>
		</g>
	</g>
	<g>
		<g>
			<g>
				<linearGradient id="SVGID_11_" gradientUnits="userSpaceOnUse" x1="276.0903" y1="99.9415" x2="366.5958" y2="99.9415">
					<stop  offset="0" style="stop-color:#013D7E"/>
					<stop  offset="0.2404" style="stop-color:#0D71AA"/>
					<stop  offset="0.4771" style="stop-color:#179DCF"/>
					<stop  offset="0.6883" style="stop-color:#1EBCE9"/>
					<stop  offset="0.8663" style="stop-color:#22CFF9"/>
					<stop  offset="0.9897" style="stop-color:#24D6FF"/>
				</linearGradient>
				<path class="st12" d="M366.6,79.9c0-0.6,0-1.3,0-1.9v-0.5h0c-1.2-23.9-21-42.9-45.2-42.9c-25,0-45.3,20.3-45.3,45.3
					s20.3,45.3,45.3,45.3c5.6,0,13-1.8,17.2-7c0.4-0.7,0.8-2.9,0.8-7.4V89.3c-3.4,6.5-10.2,10.9-18,10.9c-11.2,0-20.3-9.1-20.3-20.3
					s9.1-20.3,20.3-20.3c10.4,0,19,7.8,20.1,17.9h0.1v33.2c0,11.7-5.3,18.6-9.8,22.4c-6.6,5.6-15.9,8.1-24.3,6.7
					c-3.3-0.6-6.3-1.6-9-2.8c-5-2.4-11.1-1.2-14.8,3c-5.4,6.1-3.5,15.8,3.8,19.4c4.9,2.4,10.2,4.1,15.7,5c2.9,0.5,5.9,0.7,8.9,0.7
					c12.9,0,25.7-4.6,35.7-13c12.1-10.2,18.7-24.9,18.7-41.5V81.9C366.6,81.3,366.6,80.6,366.6,79.9z"/>
				<g>
					<linearGradient id="SVGID_12_" gradientUnits="userSpaceOnUse" x1="334.4045" y1="172.2769" x2="334.4045" y2="47.0567">
						<stop  offset="0" style="stop-color:#013D7E"/>
						<stop  offset="0.2404" style="stop-color:#0D71AA"/>
						<stop  offset="0.4771" style="stop-color:#179DCF"/>
						<stop  offset="0.6883" style="stop-color:#1EBCE9"/>
						<stop  offset="0.8663" style="stop-color:#22CFF9"/>
						<stop  offset="0.9897" style="stop-color:#24D6FF"/>
					</linearGradient>
					<path class="st13" d="M366.6,78v-0.5h0c-1.2-23.9-21-42.9-45.2-42.9c-6.8,0-13.3,1.5-19.1,4.3c18.2,2.4,33,15.6,37.8,33
						c0.8,1.8,1.3,3.7,1.5,5.7h0.1v33.2c0,0.8,0,1.5-0.1,2.3v1.6c0,16.6-6.6,31.3-18.7,41.5c-4.5,3.8-9.6,6.8-15,9
						c1.4,0.1,2.9,0.2,4.3,0.2c12.9,0,25.7-4.6,35.7-13c12.1-10.2,18.7-24.9,18.7-41.5V81.9c0-0.7,0-1.3,0-2
						C366.6,79.3,366.6,78.7,366.6,78z"/>
				</g>
				<linearGradient id="SVGID_13_" gradientUnits="userSpaceOnUse" x1="337.9017" y1="36.7602" x2="306.3844" y2="123.5815">
					<stop  offset="0" style="stop-color:#013D7E"/>
					<stop  offset="0.2404" style="stop-color:#0D71AA"/>
					<stop  offset="0.4771" style="stop-color:#179DCF"/>
					<stop  offset="0.6883" style="stop-color:#1EBCE9"/>
					<stop  offset="0.8663" style="stop-color:#22CFF9"/>
					<stop  offset="0.9897" style="stop-color:#24D6FF"/>
				</linearGradient>
				<path class="st14" d="M366.6,78v-0.5h0c-1.2-23.9-21-42.9-45.2-42.9c-25,0-45.3,20.3-45.3,45.3c0,5.3,0.9,10.5,2.6,15.2
					c6.3,17.5,23,30,42.6,30c0.4,0,0.9,0,1.3,0c3.1-0.2,6.6-0.9,9.7-2.3c2.5-1.3,4.7-3.1,6.4-5.3c0.3-1.1,0.6-3.2,0.6-6.8V92.9
					c-0.4-0.5-0.8-1.1-1.2-1.5c-3.7,5.3-9.8,8.8-16.7,8.8c-6,0-11.4-2.6-15.1-6.8c-3.2-3.6-5.1-8.3-5.1-13.5
					c0-10.3,7.7-18.8,17.7-20.1c0.9-0.1,1.7-0.2,2.6-0.2c0.1,0,0.1,0,0.2,0c0.5,0,0.9,0,1.4,0c20.8,0,38.3,14.1,43.6,33.2V81.9
					c0-0.7,0-1.3,0-2C366.6,79.3,366.6,78.7,366.6,78z"/>
				<g>
					<linearGradient id="SVGID_14_" gradientUnits="userSpaceOnUse" x1="308.697" y1="47.9072" x2="315.833" y2="131.1609">
						<stop  offset="1.030900e-02" style="stop-color:#24D6FF"/>
						<stop  offset="0.3533" style="stop-color:#19A4D5"/>
						<stop  offset="1" style="stop-color:#013D7E"/>
					</linearGradient>
					<path class="st15" d="M303.1,101c-1.7-4.8-2.6-9.9-2.6-15.2c0-3.2,0.3-6.3,1-9.4c0.1-0.8,0.3-1.5,0.5-2.2
						c5-18.7,21.6-32.7,41.7-33.6c-6.6-3.7-14.1-5.9-22.2-5.9c-25,0-45.3,20.3-45.3,45.3c0,5.3,0.9,10.5,2.6,15.2
						c6.3,17.5,23,30,42.6,30c0.4,0,0.9,0,1.3,0c0.2,0,0.5,0,0.7-0.1C314,119.8,306.7,111.2,303.1,101z"/>
				</g>
			</g>
		</g>
		<g>
			<g>
				<g>
					<path class="st4" d="M378.3,56.6c3.8-3.3,8.5-4.9,14.1-4.9c5.6,0,10.3,1.6,14.1,4.9c3.7,3.3,5.6,7.3,5.6,12
						c0,4.8-1.7,8.9-5,12.3c4.7,4,7.1,9.2,7.1,15.6c0,5.4-2,10-6,13.8c-4,3.7-9.3,5.6-15.7,5.6c-6.5,0-11.7-1.9-15.7-5.6
						c-4-3.7-6-8.3-6-13.8c0-6.4,2.4-11.7,7.1-15.6c-3.4-3.5-5.1-7.6-5.1-12.3C372.6,63.8,374.5,59.9,378.3,56.6z M386.2,102.3
						c1.9,1.4,4,2.1,6.2,2.1c2.2,0,4.3-0.7,6.2-2.1c1.9-1.4,2.8-3.4,2.8-6.1c0-2.7-0.9-4.7-2.8-6.1c-1.8-1.4-3.9-2.1-6.3-2.1
						c-2.3,0-4.4,0.7-6.3,2.1c-1.8,1.4-2.8,3.5-2.8,6.1C383.4,98.8,384.3,100.9,386.2,102.3z M387,75.1c1.5,1.4,3.4,2.1,5.4,2.1
						c2.1,0,3.9-0.7,5.4-2.1c1.5-1.4,2.3-3.2,2.3-5.3c0-2.1-0.8-3.9-2.3-5.3c-1.5-1.4-3.3-2.1-5.5-2.1c-2.1,0-3.9,0.7-5.5,2.1
						c-1.5,1.4-2.3,3.2-2.3,5.3C384.7,72,385.5,73.7,387,75.1z"/>
				</g>
			</g>
		</g>
		<g>
			<path class="st4" d="M430.7,102.8c3.2,0,5.7-1.3,7.5-3.8c1.8-2.5,2.8-5.9,3.2-10.3c-3.2,2.5-6.6,3.7-10.2,3.7
				c-4.9,0-8.9-1.9-12.1-5.6c-3.2-3.7-4.9-8.7-4.9-14.8c0-6.1,1.7-11.1,5.2-14.8c3.5-3.7,7.9-5.6,13.2-5.6c3.7,0,6.8,0.8,9.5,2.5
				c2.7,1.6,4.8,3.9,6.3,6.9c2.9,5.7,4.4,12.9,4.4,21.5c0,5.5-0.6,10.4-1.7,14.6c-1.2,4.2-2.7,7.5-4.7,9.9c-4.1,4.9-9,7.3-14.8,7.3
				c-2.4,0-4.8-0.4-7-1.3c-2.2-0.8-3.9-1.7-5-2.5c-1.1-0.8-2.4-1.9-3.9-3.3l5.8-9.5c0.3,0.3,0.8,0.8,1.4,1.3
				c0.6,0.6,1.7,1.3,3.3,2.2C427.7,102.3,429.3,102.8,430.7,102.8z M432.3,80.9c2.3,0,4.2-0.8,5.8-2.3c1.5-1.6,2.3-3.6,2.3-6.2
				c0-2.5-0.7-4.7-2.2-6.6c-1.5-1.8-3.3-2.8-5.6-2.8c-2.2,0-4,0.8-5.5,2.5c-1.4,1.6-2.1,3.7-2.1,6.3c0,2.5,0.6,4.7,1.9,6.5
				C428.2,80.1,430,80.9,432.3,80.9z"/>
		</g>
		<g class="st5">
			<g>
				<g>
					<linearGradient id="SVGID_15_" gradientUnits="userSpaceOnUse" x1="370.6767" y1="65.1287" x2="414.1469" y2="65.1287">
						<stop  offset="0" style="stop-color:#FFDBE7"/>
						<stop  offset="8.496960e-02" style="stop-color:#F5D3DE"/>
						<stop  offset="0.227" style="stop-color:#DCBDC7"/>
						<stop  offset="0.4086" style="stop-color:#B299A1"/>
						<stop  offset="0.6228" style="stop-color:#77666C"/>
						<stop  offset="0.8616" style="stop-color:#2E272A"/>
						<stop  offset="1" style="stop-color:#000000"/>
					</linearGradient>
					<path class="st16" d="M385.1,72.3c-0.3-0.8-0.4-1.6-0.4-2.4c0-2.1,0.8-3.9,2.3-5.3c1.5-1.4,3.3-2.1,5.5-2.1
						c2.1,0,3.9,0.7,5.5,2.1c1.5,1.4,2.3,3.2,2.3,5.3c0,2.1-0.8,3.9-2.3,5.3c-0.1,0.1-0.2,0.2-0.4,0.3c0.9,0.2,1.8,0.5,2.7,0.7
						c2.9,0.8,5.9,1.6,8.8,2.4c2-2.9,3.1-6.2,3.1-9.9c0-4.8-1.9-8.8-5.6-12c-3.7-3.3-8.4-4.9-14.1-4.9c-5.6,0-10.4,1.6-14.1,4.9
						c-3.8,3.3-5.7,7.2-5.7,12c0,0.2,0,0.5,0,0.7C376.8,70.3,380.9,71.3,385.1,72.3z"/>
				</g>
			</g>
		</g>
		<g class="st5">
			<linearGradient id="SVGID_16_" gradientUnits="userSpaceOnUse" x1="414.1469" y1="71.9703" x2="452.821" y2="71.9703">
				<stop  offset="0" style="stop-color:#FFDBE7"/>
				<stop  offset="8.496960e-02" style="stop-color:#F5D3DE"/>
				<stop  offset="0.227" style="stop-color:#DCBDC7"/>
				<stop  offset="0.4086" style="stop-color:#B299A1"/>
				<stop  offset="0.6228" style="stop-color:#77666C"/>
				<stop  offset="0.8616" style="stop-color:#2E272A"/>
				<stop  offset="1" style="stop-color:#000000"/>
			</linearGradient>
			<path class="st17" d="M448.8,91c1.1,0.4,2.2,0.8,3.4,1.2c0.5-2.9,0.7-6.2,0.7-9.6c0-8.6-1.5-15.8-4.4-21.5
				c-1.5-2.9-3.6-5.2-6.3-6.9c-2.7-1.6-5.9-2.5-9.5-2.5c-5.3,0-9.7,1.9-13.2,5.6c-3.5,3.7-5.2,8.7-5.2,14.8c0,3,0.4,5.8,1.2,8.2
				C426.6,83.5,437.8,87.1,448.8,91z M427.1,65.5c1.4-1.6,3.2-2.5,5.5-2.5c2.2,0,4.1,0.9,5.6,2.8c1.5,1.9,2.2,4,2.2,6.6
				c0,2.5-0.8,4.6-2.3,6.2c-1.5,1.6-3.5,2.3-5.8,2.3c-2.3,0-4.1-0.9-5.4-2.6c-1.3-1.8-1.9-3.9-1.9-6.5
				C425,69.3,425.7,67.2,427.1,65.5z"/>
		</g>
	</g>
	<g>
		<g>
			<g>
				<linearGradient id="SVGID_17_" gradientUnits="userSpaceOnUse" x1="45.3847" y1="424.5552" x2="135.8901" y2="424.5552">
					<stop  offset="0" style="stop-color:#013D7E"/>
					<stop  offset="0.2404" style="stop-color:#0D71AA"/>
					<stop  offset="0.4771" style="stop-color:#179DCF"/>
					<stop  offset="0.6883" style="stop-color:#1EBCE9"/>
					<stop  offset="0.8663" style="stop-color:#22CFF9"/>
					<stop  offset="0.9897" style="stop-color:#24D6FF"/>
				</linearGradient>
				<path class="st18" d="M135.9,404.5c0-0.6,0-1.3,0-1.9v-0.5h0c-1.2-23.9-21-42.9-45.2-42.9c-25,0-45.3,20.3-45.3,45.3
					c0,25,20.3,45.3,45.3,45.3c5.6,0,13-1.8,17.2-7c0.4-0.7,0.8-2.9,0.8-7.4V414c-3.4,6.5-10.2,10.9-18,10.9
					c-11.2,0-20.3-9.1-20.3-20.3c0-11.2,9.1-20.3,20.3-20.3c10.4,0,19,7.8,20.1,17.9h0.1v33.2c0,11.7-5.3,18.6-9.8,22.4
					c-6.6,5.6-15.9,8.1-24.3,6.7c-3.3-0.6-6.3-1.6-9-2.8c-5-2.4-11.1-1.2-14.8,3c-5.4,6.1-3.5,15.8,3.8,19.4
					c4.9,2.4,10.2,4.1,15.7,5c2.9,0.5,5.9,0.7,8.9,0.7c12.9,0,25.7-4.6,35.7-13c12.1-10.2,18.7-24.9,18.7-41.5v-28.8
					C135.9,405.9,135.9,405.2,135.9,404.5z"/>
				<g>
					<linearGradient id="SVGID_18_" gradientUnits="userSpaceOnUse" x1="103.6989" y1="496.8905" x2="103.6989" y2="371.6703">
						<stop  offset="0" style="stop-color:#013D7E"/>
						<stop  offset="0.2404" style="stop-color:#0D71AA"/>
						<stop  offset="0.4771" style="stop-color:#179DCF"/>
						<stop  offset="0.6883" style="stop-color:#1EBCE9"/>
						<stop  offset="0.8663" style="stop-color:#22CFF9"/>
						<stop  offset="0.9897" style="stop-color:#24D6FF"/>
					</linearGradient>
					<path class="st19" d="M135.9,402.6v-0.5h0c-1.2-23.9-21-42.9-45.2-42.9c-6.8,0-13.3,1.5-19.1,4.3c18.2,2.4,33,15.6,37.8,33
						c0.8,1.8,1.3,3.7,1.5,5.7h0.1v33.2c0,0.8,0,1.5-0.1,2.3v1.6c0,16.6-6.6,31.3-18.7,41.5c-4.5,3.8-9.6,6.8-15,9
						c1.4,0.1,2.9,0.2,4.3,0.2c12.9,0,25.7-4.6,35.7-13c12.1-10.2,18.7-24.9,18.7-41.5v-28.8c0-0.7,0-1.3,0-2
						C135.9,403.9,135.9,403.3,135.9,402.6z"/>
				</g>
				<linearGradient id="SVGID_19_" gradientUnits="userSpaceOnUse" x1="107.1961" y1="361.3738" x2="75.6787" y2="448.1951">
					<stop  offset="0" style="stop-color:#013D7E"/>
					<stop  offset="0.2404" style="stop-color:#0D71AA"/>
					<stop  offset="0.4771" style="stop-color:#179DCF"/>
					<stop  offset="0.6883" style="stop-color:#1EBCE9"/>
					<stop  offset="0.8663" style="stop-color:#22CFF9"/>
					<stop  offset="0.9897" style="stop-color:#24D6FF"/>
				</linearGradient>
				<path class="st20" d="M135.9,402.6v-0.5h0c-1.2-23.9-21-42.9-45.2-42.9c-25,0-45.3,20.3-45.3,45.3c0,5.3,0.9,10.5,2.6,15.2
					c6.3,17.5,23,30,42.6,30c0.4,0,0.9,0,1.3,0c3.1-0.2,6.6-0.9,9.7-2.3c2.5-1.3,4.7-3.1,6.4-5.3c0.3-1.1,0.6-3.2,0.6-6.8v-17.8
					c-0.4-0.5-0.8-1.1-1.2-1.5c-3.7,5.3-9.8,8.8-16.7,8.8c-6,0-11.4-2.6-15.1-6.8c-3.2-3.6-5.1-8.3-5.1-13.5
					c0-10.3,7.7-18.8,17.7-20.1c0.9-0.1,1.7-0.2,2.6-0.2c0.1,0,0.1,0,0.2,0c0.5,0,0.9,0,1.4,0c20.8,0,38.3,14.1,43.6,33.2v-10.9
					c0-0.7,0-1.3,0-2C135.9,403.9,135.9,403.3,135.9,402.6z"/>
				<g>
					<linearGradient id="SVGID_20_" gradientUnits="userSpaceOnUse" x1="77.9913" y1="372.5208" x2="85.1274" y2="455.7745">
						<stop  offset="1.030900e-02" style="stop-color:#24D6FF"/>
						<stop  offset="0.3533" style="stop-color:#19A4D5"/>
						<stop  offset="1" style="stop-color:#013D7E"/>
					</linearGradient>
					<path class="st21" d="M72.4,425.6c-1.7-4.8-2.6-9.9-2.6-15.2c0-3.2,0.3-6.3,1-9.4c0.1-0.8,0.3-1.5,0.5-2.2
						c5-18.7,21.6-32.7,41.7-33.6c-6.6-3.7-14.1-5.9-22.2-5.9c-25,0-45.3,20.3-45.3,45.3c0,5.3,0.9,10.5,2.6,15.2
						c6.3,17.5,23,30,42.6,30c0.4,0,0.9,0,1.3,0c0.2,0,0.5,0,0.7-0.1C83.3,444.4,76,435.8,72.4,425.6z"/>
				</g>
			</g>
		</g>
		<g>
			<g>
				<g>
					<path class="st4" d="M147.6,381.2c3.8-3.3,8.5-4.9,14.1-4.9c5.6,0,10.3,1.6,14.1,4.9c3.7,3.3,5.6,7.3,5.6,12
						c0,4.8-1.7,8.9-5,12.3c4.7,4,7.1,9.2,7.1,15.6c0,5.4-2,10-6,13.8c-4,3.7-9.3,5.6-15.7,5.6c-6.5,0-11.7-1.9-15.7-5.6
						c-4-3.7-6-8.3-6-13.8c0-6.4,2.4-11.7,7.1-15.6c-3.4-3.5-5.1-7.6-5.1-12.3C141.9,388.5,143.8,384.5,147.6,381.2z M155.5,426.9
						c1.9,1.4,4,2.1,6.2,2.1c2.2,0,4.3-0.7,6.2-2.1c1.9-1.4,2.8-3.4,2.8-6.1c0-2.7-0.9-4.7-2.8-6.1c-1.8-1.4-3.9-2.1-6.3-2.1
						c-2.3,0-4.4,0.7-6.3,2.1c-1.8,1.4-2.8,3.5-2.8,6.1C152.7,423.5,153.6,425.5,155.5,426.9z M156.3,399.8c1.5,1.4,3.4,2.1,5.4,2.1
						c2.1,0,3.9-0.7,5.4-2.1c1.5-1.4,2.3-3.2,2.3-5.3c0-2.1-0.8-3.9-2.3-5.3c-1.5-1.4-3.3-2.1-5.5-2.1c-2.1,0-3.9,0.7-5.5,2.1
						c-1.5,1.4-2.3,3.2-2.3,5.3C154,396.6,154.7,398.3,156.3,399.8z"/>
				</g>
			</g>
		</g>
		<g>
			<path class="st4" d="M200,427.4c3.2,0,5.7-1.3,7.5-3.8c1.8-2.5,2.8-5.9,3.2-10.3c-3.2,2.5-6.6,3.7-10.2,3.7
				c-4.9,0-8.9-1.9-12.1-5.6c-3.2-3.7-4.9-8.7-4.9-14.8c0-6.1,1.7-11.1,5.2-14.8c3.5-3.7,7.9-5.6,13.2-5.6c3.7,0,6.8,0.8,9.5,2.5
				c2.7,1.6,4.8,3.9,6.3,6.9c2.9,5.7,4.4,12.9,4.4,21.5c0,5.5-0.6,10.4-1.7,14.6c-1.2,4.2-2.7,7.5-4.7,9.9c-4.1,4.9-9,7.3-14.8,7.3
				c-2.4,0-4.8-0.4-7-1.3c-2.2-0.8-3.9-1.7-5-2.5c-1.1-0.8-2.4-1.9-3.9-3.3l5.8-9.5c0.3,0.3,0.8,0.8,1.4,1.3
				c0.6,0.6,1.7,1.3,3.3,2.2C197,426.9,198.6,427.4,200,427.4z M201.6,405.6c2.3,0,4.2-0.8,5.8-2.3c1.5-1.6,2.3-3.6,2.3-6.2
				c0-2.5-0.7-4.7-2.2-6.6c-1.5-1.8-3.3-2.8-5.6-2.8c-2.2,0-4,0.8-5.5,2.5c-1.4,1.6-2.1,3.7-2.1,6.3c0,2.5,0.6,4.7,1.9,6.5
				C197.5,404.7,199.3,405.6,201.6,405.6z"/>
		</g>
		<g class="st5">
			<g>
				<g>
					<linearGradient id="SVGID_21_" gradientUnits="userSpaceOnUse" x1="139.9711" y1="389.7424" x2="183.4412" y2="389.7424">
						<stop  offset="0" style="stop-color:#FFDBE7"/>
						<stop  offset="8.496960e-02" style="stop-color:#F5D3DE"/>
						<stop  offset="0.227" style="stop-color:#DCBDC7"/>
						<stop  offset="0.4086" style="stop-color:#B299A1"/>
						<stop  offset="0.6228" style="stop-color:#77666C"/>
						<stop  offset="0.8616" style="stop-color:#2E272A"/>
						<stop  offset="1" style="stop-color:#000000"/>
					</linearGradient>
					<path class="st22" d="M154.4,396.9c-0.3-0.8-0.4-1.6-0.4-2.4c0-2.1,0.8-3.9,2.3-5.3c1.5-1.4,3.3-2.1,5.5-2.1
						c2.1,0,3.9,0.7,5.5,2.1c1.5,1.4,2.3,3.2,2.3,5.3c0,2.1-0.8,3.9-2.3,5.3c-0.1,0.1-0.2,0.2-0.4,0.3c0.9,0.2,1.8,0.5,2.7,0.7
						c2.9,0.8,5.9,1.6,8.8,2.4c2-2.9,3.1-6.2,3.1-9.9c0-4.8-1.9-8.8-5.6-12c-3.7-3.3-8.4-4.9-14.1-4.9c-5.6,0-10.4,1.6-14.1,4.9
						c-3.8,3.3-5.7,7.2-5.7,12c0,0.2,0,0.5,0,0.7C146.1,394.9,150.2,395.9,154.4,396.9z"/>
				</g>
			</g>
		</g>
		<g class="st5">
			<linearGradient id="SVGID_22_" gradientUnits="userSpaceOnUse" x1="183.4412" y1="396.5839" x2="222.1153" y2="396.5839">
				<stop  offset="0" style="stop-color:#FFDBE7"/>
				<stop  offset="8.496960e-02" style="stop-color:#F5D3DE"/>
				<stop  offset="0.227" style="stop-color:#DCBDC7"/>
				<stop  offset="0.4086" style="stop-color:#B299A1"/>
				<stop  offset="0.6228" style="stop-color:#77666C"/>
				<stop  offset="0.8616" style="stop-color:#2E272A"/>
				<stop  offset="1" style="stop-color:#000000"/>
			</linearGradient>
			<path class="st23" d="M218.1,415.6c1.1,0.4,2.2,0.8,3.4,1.2c0.5-2.9,0.7-6.2,0.7-9.6c0-8.6-1.5-15.8-4.4-21.5
				c-1.5-2.9-3.6-5.2-6.3-6.9c-2.7-1.6-5.9-2.5-9.5-2.5c-5.3,0-9.7,1.9-13.2,5.6c-3.5,3.7-5.2,8.7-5.2,14.8c0,3,0.4,5.8,1.2,8.2
				C195.9,408.2,207.1,411.7,218.1,415.6z M196.4,390.2c1.4-1.6,3.2-2.5,5.5-2.5c2.2,0,4.1,0.9,5.6,2.8c1.5,1.9,2.2,4,2.2,6.6
				c0,2.5-0.8,4.6-2.3,6.2c-1.5,1.6-3.5,2.3-5.8,2.3c-2.3,0-4.1-0.9-5.4-2.6c-1.3-1.8-1.9-3.9-1.9-6.5
				C194.3,393.9,195,391.8,196.4,390.2z"/>
		</g>
	</g>
	<g>
		<g>
			<g>
				<linearGradient id="SVGID_23_" gradientUnits="userSpaceOnUse" x1="276.6105" y1="264.3911" x2="367.116" y2="264.3911">
					<stop  offset="0" style="stop-color:#013D7E"/>
					<stop  offset="0.2404" style="stop-color:#0D71AA"/>
					<stop  offset="0.4771" style="stop-color:#179DCF"/>
					<stop  offset="0.6883" style="stop-color:#1EBCE9"/>
					<stop  offset="0.8663" style="stop-color:#22CFF9"/>
					<stop  offset="0.9897" style="stop-color:#24D6FF"/>
				</linearGradient>
				<path class="st24" d="M367.1,244.4c0-0.6,0-1.3,0-1.9V242h0c-1.2-23.9-21-42.9-45.2-42.9c-25,0-45.3,20.3-45.3,45.3
					s20.3,45.3,45.3,45.3c5.6,0,13-1.8,17.2-7c0.4-0.7,0.8-2.9,0.8-7.4v-21.4c-3.4,6.5-10.2,10.9-18,10.9
					c-11.2,0-20.3-9.1-20.3-20.3s9.1-20.3,20.3-20.3c10.4,0,19,7.8,20.1,17.9h0.1v33.2c0,11.7-5.3,18.6-9.8,22.4
					c-6.6,5.6-15.9,8.1-24.3,6.7c-3.3-0.6-6.3-1.6-9-2.8c-5-2.4-11.1-1.2-14.8,3c-5.4,6.1-3.5,15.8,3.8,19.4
					c4.9,2.4,10.2,4.1,15.7,5c2.9,0.5,5.9,0.7,8.9,0.7c12.9,0,25.7-4.6,35.7-13c12.1-10.2,18.7-24.9,18.7-41.5v-28.8
					C367.1,245.7,367.1,245,367.1,244.4z"/>
				<g>
					<linearGradient id="SVGID_24_" gradientUnits="userSpaceOnUse" x1="334.9247" y1="336.7265" x2="334.9247" y2="211.5063">
						<stop  offset="0" style="stop-color:#013D7E"/>
						<stop  offset="0.2404" style="stop-color:#0D71AA"/>
						<stop  offset="0.4771" style="stop-color:#179DCF"/>
						<stop  offset="0.6883" style="stop-color:#1EBCE9"/>
						<stop  offset="0.8663" style="stop-color:#22CFF9"/>
						<stop  offset="0.9897" style="stop-color:#24D6FF"/>
					</linearGradient>
					<path class="st25" d="M367.1,242.5V242h0c-1.2-23.9-21-42.9-45.2-42.9c-6.8,0-13.3,1.5-19.1,4.3c18.2,2.4,33,15.6,37.8,33
						c0.8,1.8,1.3,3.7,1.5,5.7h0.1v33.2c0,0.8,0,1.5-0.1,2.3v1.6c0,16.6-6.6,31.3-18.7,41.5c-4.5,3.8-9.6,6.8-15,9
						c1.4,0.1,2.9,0.2,4.3,0.2c12.9,0,25.7-4.6,35.7-13c12.1-10.2,18.7-24.9,18.7-41.5v-28.8c0-0.7,0-1.3,0-2
						C367.1,243.7,367.1,243.1,367.1,242.5z"/>
				</g>
				<linearGradient id="SVGID_25_" gradientUnits="userSpaceOnUse" x1="338.4219" y1="201.2098" x2="306.9045" y2="288.0311">
					<stop  offset="0" style="stop-color:#013D7E"/>
					<stop  offset="0.2404" style="stop-color:#0D71AA"/>
					<stop  offset="0.4771" style="stop-color:#179DCF"/>
					<stop  offset="0.6883" style="stop-color:#1EBCE9"/>
					<stop  offset="0.8663" style="stop-color:#22CFF9"/>
					<stop  offset="0.9897" style="stop-color:#24D6FF"/>
				</linearGradient>
				<path class="st26" d="M367.1,242.5V242h0c-1.2-23.9-21-42.9-45.2-42.9c-25,0-45.3,20.3-45.3,45.3c0,5.3,0.9,10.5,2.6,15.2
					c6.3,17.5,23,30,42.6,30c0.4,0,0.9,0,1.3,0c3.1-0.2,6.6-0.9,9.7-2.3c2.5-1.3,4.7-3.1,6.4-5.3c0.3-1.1,0.6-3.2,0.6-6.8v-17.8
					c-0.4-0.5-0.8-1.1-1.2-1.5c-3.7,5.3-9.8,8.8-16.7,8.8c-6,0-11.4-2.6-15.1-6.8c-3.2-3.6-5.1-8.3-5.1-13.5
					c0-10.3,7.7-18.8,17.7-20.1c0.9-0.1,1.7-0.2,2.6-0.2c0.1,0,0.1,0,0.2,0c0.5,0,0.9,0,1.4,0c20.8,0,38.3,14.1,43.6,33.2v-10.9
					c0-0.7,0-1.3,0-2C367.1,243.7,367.1,243.1,367.1,242.5z"/>
				<g>
					<linearGradient id="SVGID_26_" gradientUnits="userSpaceOnUse" x1="309.2172" y1="212.3568" x2="316.3532" y2="295.6105">
						<stop  offset="1.030900e-02" style="stop-color:#24D6FF"/>
						<stop  offset="0.3533" style="stop-color:#19A4D5"/>
						<stop  offset="1" style="stop-color:#013D7E"/>
					</linearGradient>
					<path class="st27" d="M303.6,265.4c-1.7-4.8-2.6-9.9-2.6-15.2c0-3.2,0.3-6.3,1-9.4c0.1-0.8,0.3-1.5,0.5-2.2
						c5-18.7,21.6-32.7,41.7-33.6c-6.6-3.7-14.1-5.9-22.2-5.9c-25,0-45.3,20.3-45.3,45.3c0,5.3,0.9,10.5,2.6,15.2
						c6.3,17.5,23,30,42.6,30c0.4,0,0.9,0,1.3,0c0.2,0,0.5,0,0.7-0.1C314.5,284.2,307.3,275.7,303.6,265.4z"/>
				</g>
			</g>
		</g>
		<g>
			<g>
				<g>
					<path class="st4" d="M378.8,221c3.8-3.3,8.5-4.9,14.1-4.9c5.6,0,10.3,1.6,14.1,4.9c3.7,3.3,5.6,7.3,5.6,12
						c0,4.8-1.7,8.9-5,12.3c4.7,4,7.1,9.2,7.1,15.6c0,5.4-2,10-6,13.8c-4,3.7-9.3,5.6-15.7,5.6c-6.5,0-11.7-1.9-15.7-5.6
						c-4-3.7-6-8.3-6-13.8c0-6.4,2.4-11.7,7.1-15.6c-3.4-3.5-5.1-7.6-5.1-12.3C373.2,228.3,375,224.3,378.8,221z M386.7,266.7
						c1.9,1.4,4,2.1,6.2,2.1c2.2,0,4.3-0.7,6.2-2.1c1.9-1.4,2.8-3.4,2.8-6.1s-0.9-4.7-2.8-6.1c-1.8-1.4-3.9-2.1-6.3-2.1
						c-2.3,0-4.4,0.7-6.3,2.1c-1.8,1.4-2.8,3.5-2.8,6.1S384.8,265.3,386.7,266.7z M387.5,239.6c1.5,1.4,3.4,2.1,5.4,2.1
						c2.1,0,3.9-0.7,5.4-2.1c1.5-1.4,2.3-3.2,2.3-5.3c0-2.1-0.8-3.9-2.3-5.3c-1.5-1.4-3.3-2.1-5.5-2.1c-2.1,0-3.9,0.7-5.5,2.1
						c-1.5,1.4-2.3,3.2-2.3,5.3C385.2,236.4,386,238.2,387.5,239.6z"/>
				</g>
			</g>
		</g>
		<g>
			<path class="st4" d="M431.2,267.2c3.2,0,5.7-1.3,7.5-3.8c1.8-2.5,2.8-5.9,3.2-10.3c-3.2,2.5-6.6,3.7-10.2,3.7
				c-4.9,0-8.9-1.9-12.1-5.6c-3.2-3.7-4.9-8.7-4.9-14.8c0-6.1,1.7-11.1,5.2-14.8c3.5-3.7,7.9-5.6,13.2-5.6c3.7,0,6.8,0.8,9.5,2.5
				c2.7,1.6,4.8,3.9,6.3,6.9c2.9,5.7,4.4,12.9,4.4,21.5c0,5.5-0.6,10.4-1.7,14.6c-1.2,4.2-2.7,7.5-4.7,9.9c-4.1,4.9-9,7.3-14.8,7.3
				c-2.4,0-4.8-0.4-7-1.3c-2.2-0.8-3.9-1.7-5-2.5c-1.1-0.8-2.4-1.9-3.9-3.3l5.8-9.5c0.3,0.3,0.8,0.8,1.4,1.3
				c0.6,0.6,1.7,1.3,3.3,2.2C428.3,266.8,429.8,267.2,431.2,267.2z M432.8,245.4c2.3,0,4.2-0.8,5.8-2.3c1.5-1.6,2.3-3.6,2.3-6.2
				c0-2.5-0.7-4.7-2.2-6.6c-1.5-1.8-3.3-2.8-5.6-2.8c-2.2,0-4,0.8-5.5,2.5c-1.4,1.6-2.1,3.7-2.1,6.3c0,2.5,0.6,4.7,1.9,6.5
				C428.7,244.5,430.5,245.4,432.8,245.4z"/>
		</g>
		<g class="st5">
			<g>
				<g>
					<linearGradient id="SVGID_27_" gradientUnits="userSpaceOnUse" x1="371.1969" y1="229.5783" x2="414.6671" y2="229.5783">
						<stop  offset="0" style="stop-color:#FFDBE7"/>
						<stop  offset="8.496960e-02" style="stop-color:#F5D3DE"/>
						<stop  offset="0.227" style="stop-color:#DCBDC7"/>
						<stop  offset="0.4086" style="stop-color:#B299A1"/>
						<stop  offset="0.6228" style="stop-color:#77666C"/>
						<stop  offset="0.8616" style="stop-color:#2E272A"/>
						<stop  offset="1" style="stop-color:#000000"/>
					</linearGradient>
					<path class="st28" d="M385.6,236.7c-0.3-0.8-0.4-1.6-0.4-2.4c0-2.1,0.8-3.9,2.3-5.3c1.5-1.4,3.3-2.1,5.5-2.1
						c2.1,0,3.9,0.7,5.5,2.1c1.5,1.4,2.3,3.2,2.3,5.3c0,2.1-0.8,3.9-2.3,5.3c-0.1,0.1-0.2,0.2-0.4,0.3c0.9,0.2,1.8,0.5,2.7,0.7
						c2.9,0.8,5.9,1.6,8.8,2.4c2-2.9,3.1-6.2,3.1-9.9c0-4.8-1.9-8.8-5.6-12c-3.7-3.3-8.4-4.9-14.1-4.9c-5.6,0-10.4,1.6-14.1,4.9
						c-3.8,3.3-5.7,7.2-5.7,12c0,0.2,0,0.5,0,0.7C377.3,234.7,381.5,235.7,385.6,236.7z"/>
				</g>
			</g>
		</g>
		<g class="st5">
			<linearGradient id="SVGID_28_" gradientUnits="userSpaceOnUse" x1="414.667" y1="236.4198" x2="453.3412" y2="236.4198">
				<stop  offset="0" style="stop-color:#FFDBE7"/>
				<stop  offset="8.496960e-02" style="stop-color:#F5D3DE"/>
				<stop  offset="0.227" style="stop-color:#DCBDC7"/>
				<stop  offset="0.4086" style="stop-color:#B299A1"/>
				<stop  offset="0.6228" style="stop-color:#77666C"/>
				<stop  offset="0.8616" style="stop-color:#2E272A"/>
				<stop  offset="1" style="stop-color:#000000"/>
			</linearGradient>
			<path class="st29" d="M449.3,255.4c1.1,0.4,2.2,0.8,3.4,1.2c0.5-2.9,0.7-6.2,0.7-9.6c0-8.6-1.5-15.8-4.4-21.5
				c-1.5-2.9-3.6-5.2-6.3-6.9c-2.7-1.6-5.9-2.5-9.5-2.5c-5.3,0-9.7,1.9-13.2,5.6c-3.5,3.7-5.2,8.7-5.2,14.8c0,3,0.4,5.8,1.2,8.2
				C427.1,248,438.3,251.5,449.3,255.4z M427.6,230c1.4-1.6,3.2-2.5,5.5-2.5c2.2,0,4.1,0.9,5.6,2.8c1.5,1.9,2.2,4,2.2,6.6
				c0,2.5-0.8,4.6-2.3,6.2c-1.5,1.6-3.5,2.3-5.8,2.3c-2.3,0-4.1-0.9-5.4-2.6c-1.3-1.8-1.9-3.9-1.9-6.5
				C425.5,233.7,426.2,231.6,427.6,230z"/>
		</g>
		<g>
			<path class="st30" d="M376.7,309.3l2.8-3.5c1.2,1.6,2.6,2.5,4.1,2.5c2.1,0,3.2-1.3,3.2-3.7v-13.9H379v-4.2h13.1v17.8
				c0,5.6-2.8,8.3-8.1,8.3C381,312.6,378.4,311.4,376.7,309.3z"/>
			<path class="st30" d="M395.8,297.7c0-6.7,5.2-11.6,12.3-11.6c7.1,0,12.3,4.9,12.3,11.6s-5.2,11.6-12.3,11.6
				C401.1,309.3,395.8,304.4,395.8,297.7z M415.2,297.7c0-4.3-3-7.2-7-7.2c-4,0-7,2.9-7,7.2s3,7.2,7,7.2
				C412.2,304.9,415.2,302,415.2,297.7z"/>
			<path class="st30" d="M445.1,302.8c0,3.9-3.1,6.1-9,6.1h-11.6v-22.5h11c5.6,0,8.5,2.3,8.5,5.9c0,2.3-1.2,4-3,5
				C443.4,298.1,445.1,300,445.1,302.8z M429.6,290.4v5.3h5.2c2.5,0,3.9-0.9,3.9-2.7c0-1.8-1.4-2.6-3.9-2.6H429.6z M439.8,302.3
				c0-1.9-1.4-2.8-4.1-2.8h-6.1v5.6h6.1C438.4,305,439.8,304.2,439.8,302.3z"/>
		</g>
		<g class="st5">
			<linearGradient id="SVGID_29_" gradientUnits="userSpaceOnUse" x1="376.706" y1="291.341" x2="392.1136" y2="291.341">
				<stop  offset="0" style="stop-color:#FFDBE7"/>
				<stop  offset="8.496960e-02" style="stop-color:#F5D3DE"/>
				<stop  offset="0.227" style="stop-color:#DCBDC7"/>
				<stop  offset="0.4086" style="stop-color:#B299A1"/>
				<stop  offset="0.6228" style="stop-color:#77666C"/>
				<stop  offset="0.8616" style="stop-color:#2E272A"/>
				<stop  offset="1" style="stop-color:#000000"/>
			</linearGradient>
			<polygon class="st31" points="386.9,296.2 392.1,296.2 392.1,286.4 379,286.4 379,290.6 386.9,290.6 			"/>
			<linearGradient id="SVGID_30_" gradientUnits="userSpaceOnUse" x1="395.8427" y1="291.1481" x2="420.4826" y2="291.1481">
				<stop  offset="0" style="stop-color:#FFDBE7"/>
				<stop  offset="8.496960e-02" style="stop-color:#F5D3DE"/>
				<stop  offset="0.227" style="stop-color:#DCBDC7"/>
				<stop  offset="0.4086" style="stop-color:#B299A1"/>
				<stop  offset="0.6228" style="stop-color:#77666C"/>
				<stop  offset="0.8616" style="stop-color:#2E272A"/>
				<stop  offset="1" style="stop-color:#000000"/>
			</linearGradient>
			<path class="st32" d="M401.2,296.2c0.6-3.5,3.4-5.7,6.9-5.7c3.5,0,6.3,2.3,6.9,5.7h5.3c-0.7-6-5.7-10.2-12.2-10.2
				c-6.6,0-11.5,4.2-12.2,10.2H401.2z"/>
			<linearGradient id="SVGID_31_" gradientUnits="userSpaceOnUse" x1="424.4024" y1="291.341" x2="445.0535" y2="291.341">
				<stop  offset="0" style="stop-color:#FFDBE7"/>
				<stop  offset="8.496960e-02" style="stop-color:#F5D3DE"/>
				<stop  offset="0.227" style="stop-color:#DCBDC7"/>
				<stop  offset="0.4086" style="stop-color:#B299A1"/>
				<stop  offset="0.6228" style="stop-color:#77666C"/>
				<stop  offset="0.8616" style="stop-color:#2E272A"/>
				<stop  offset="1" style="stop-color:#000000"/>
			</linearGradient>
			<path class="st33" d="M442.3,296.2c1-1,1.6-2.3,1.6-3.9c0-3.5-2.9-5.9-8.5-5.9h-11v9.8H442.3z M429.6,290.4h5.2
				c2.5,0,3.9,0.9,3.9,2.6c0,1.8-1.4,2.7-3.9,2.7h-5.2V290.4z"/>
		</g>
	</g>
	<g>
		<g>
			<g>
				<linearGradient id="SVGID_32_" gradientUnits="userSpaceOnUse" x1="276.8846" y1="424.5552" x2="367.3901" y2="424.5552">
					<stop  offset="0" style="stop-color:#013D7E"/>
					<stop  offset="0.2404" style="stop-color:#0D71AA"/>
					<stop  offset="0.4771" style="stop-color:#179DCF"/>
					<stop  offset="0.6883" style="stop-color:#1EBCE9"/>
					<stop  offset="0.8663" style="stop-color:#22CFF9"/>
					<stop  offset="0.9897" style="stop-color:#24D6FF"/>
				</linearGradient>
				<path class="st34" d="M367.4,404.5c0-0.6,0-1.3,0-1.9v-0.5h0c-1.2-23.9-21-42.9-45.2-42.9c-25,0-45.3,20.3-45.3,45.3
					c0,25,20.3,45.3,45.3,45.3c5.6,0,13-1.8,17.2-7c0.4-0.7,0.8-2.9,0.8-7.4V414c-3.4,6.5-10.2,10.9-18,10.9
					c-11.2,0-20.3-9.1-20.3-20.3c0-11.2,9.1-20.3,20.3-20.3c10.4,0,19,7.8,20.1,17.9h0.1v33.2c0,11.7-5.3,18.6-9.8,22.4
					c-6.6,5.6-15.9,8.1-24.3,6.7c-3.3-0.6-6.3-1.6-9-2.8c-5-2.4-11.1-1.2-14.8,3c-5.4,6.1-3.5,15.8,3.8,19.4
					c4.9,2.4,10.2,4.1,15.7,5c2.9,0.5,5.9,0.7,8.9,0.7c12.9,0,25.7-4.6,35.7-13c12.1-10.2,18.7-24.9,18.7-41.5v-28.8
					C367.4,405.9,367.4,405.2,367.4,404.5z"/>
				<g>
					<linearGradient id="SVGID_33_" gradientUnits="userSpaceOnUse" x1="335.1989" y1="496.8905" x2="335.1989" y2="371.6703">
						<stop  offset="0" style="stop-color:#013D7E"/>
						<stop  offset="0.2404" style="stop-color:#0D71AA"/>
						<stop  offset="0.4771" style="stop-color:#179DCF"/>
						<stop  offset="0.6883" style="stop-color:#1EBCE9"/>
						<stop  offset="0.8663" style="stop-color:#22CFF9"/>
						<stop  offset="0.9897" style="stop-color:#24D6FF"/>
					</linearGradient>
					<path class="st35" d="M367.4,402.6v-0.5h0c-1.2-23.9-21-42.9-45.2-42.9c-6.8,0-13.3,1.5-19.1,4.3c18.2,2.4,33,15.6,37.8,33
						c0.8,1.8,1.3,3.7,1.5,5.7h0.1v33.2c0,0.8,0,1.5-0.1,2.3v1.6c0,16.6-6.6,31.3-18.7,41.5c-4.5,3.8-9.6,6.8-15,9
						c1.4,0.1,2.9,0.2,4.3,0.2c12.9,0,25.7-4.6,35.7-13c12.1-10.2,18.7-24.9,18.7-41.5v-28.8c0-0.7,0-1.3,0-2
						C367.4,403.9,367.4,403.3,367.4,402.6z"/>
				</g>
				<linearGradient id="SVGID_34_" gradientUnits="userSpaceOnUse" x1="338.6961" y1="361.3738" x2="307.1787" y2="448.1951">
					<stop  offset="0" style="stop-color:#013D7E"/>
					<stop  offset="0.2404" style="stop-color:#0D71AA"/>
					<stop  offset="0.4771" style="stop-color:#179DCF"/>
					<stop  offset="0.6883" style="stop-color:#1EBCE9"/>
					<stop  offset="0.8663" style="stop-color:#22CFF9"/>
					<stop  offset="0.9897" style="stop-color:#24D6FF"/>
				</linearGradient>
				<path class="st36" d="M367.4,402.6v-0.5h0c-1.2-23.9-21-42.9-45.2-42.9c-25,0-45.3,20.3-45.3,45.3c0,5.3,0.9,10.5,2.6,15.2
					c6.3,17.5,23,30,42.6,30c0.4,0,0.9,0,1.3,0c3.1-0.2,6.6-0.9,9.7-2.3c2.5-1.3,4.7-3.1,6.4-5.3c0.3-1.1,0.6-3.2,0.6-6.8v-17.8
					c-0.4-0.5-0.8-1.1-1.2-1.5c-3.7,5.3-9.8,8.8-16.7,8.8c-6,0-11.4-2.6-15.1-6.8c-3.2-3.6-5.1-8.3-5.1-13.5
					c0-10.3,7.7-18.8,17.7-20.1c0.9-0.1,1.7-0.2,2.6-0.2c0.1,0,0.1,0,0.2,0c0.5,0,0.9,0,1.4,0c20.8,0,38.3,14.1,43.6,33.2v-10.9
					c0-0.7,0-1.3,0-2C367.4,403.9,367.4,403.3,367.4,402.6z"/>
				<g>
					<linearGradient id="SVGID_35_" gradientUnits="userSpaceOnUse" x1="309.4913" y1="372.5208" x2="316.6274" y2="455.7745">
						<stop  offset="1.030900e-02" style="stop-color:#24D6FF"/>
						<stop  offset="0.3533" style="stop-color:#19A4D5"/>
						<stop  offset="1" style="stop-color:#013D7E"/>
					</linearGradient>
					<path class="st37" d="M303.9,425.6c-1.7-4.8-2.6-9.9-2.6-15.2c0-3.2,0.3-6.3,1-9.4c0.1-0.8,0.3-1.5,0.5-2.2
						c5-18.7,21.6-32.7,41.7-33.6c-6.6-3.7-14.1-5.9-22.2-5.9c-25,0-45.3,20.3-45.3,45.3c0,5.3,0.9,10.5,2.6,15.2
						c6.3,17.5,23,30,42.6,30c0.4,0,0.9,0,1.3,0c0.2,0,0.5,0,0.7-0.1C314.8,444.4,307.5,435.8,303.9,425.6z"/>
				</g>
			</g>
		</g>
		<g>
			<g>
				<g>
					<path class="st4" d="M379.1,381.2c3.8-3.3,8.5-4.9,14.1-4.9c5.6,0,10.3,1.6,14.1,4.9c3.7,3.3,5.6,7.3,5.6,12
						c0,4.8-1.7,8.9-5,12.3c4.7,4,7.1,9.2,7.1,15.6c0,5.4-2,10-6,13.8c-4,3.7-9.3,5.6-15.7,5.6c-6.5,0-11.7-1.9-15.7-5.6
						c-4-3.7-6-8.3-6-13.8c0-6.4,2.4-11.7,7.1-15.6c-3.4-3.5-5.1-7.6-5.1-12.3C373.4,388.5,375.3,384.5,379.1,381.2z M387,426.9
						c1.9,1.4,4,2.1,6.2,2.1c2.2,0,4.3-0.7,6.2-2.1c1.9-1.4,2.8-3.4,2.8-6.1c0-2.7-0.9-4.7-2.8-6.1c-1.8-1.4-3.9-2.1-6.3-2.1
						c-2.3,0-4.4,0.7-6.3,2.1c-1.8,1.4-2.8,3.5-2.8,6.1C384.2,423.5,385.1,425.5,387,426.9z M387.8,399.8c1.5,1.4,3.4,2.1,5.4,2.1
						c2.1,0,3.9-0.7,5.4-2.1c1.5-1.4,2.3-3.2,2.3-5.3c0-2.1-0.8-3.9-2.3-5.3c-1.5-1.4-3.3-2.1-5.5-2.1c-2.1,0-3.9,0.7-5.5,2.1
						c-1.5,1.4-2.3,3.2-2.3,5.3C385.5,396.6,386.2,398.3,387.8,399.8z"/>
				</g>
			</g>
		</g>
		<g>
			<path class="st4" d="M431.5,427.4c3.2,0,5.7-1.3,7.5-3.8c1.8-2.5,2.8-5.9,3.2-10.3c-3.2,2.5-6.6,3.7-10.2,3.7
				c-4.9,0-8.9-1.9-12.1-5.6c-3.2-3.7-4.9-8.7-4.9-14.8c0-6.1,1.7-11.1,5.2-14.8c3.5-3.7,7.9-5.6,13.2-5.6c3.7,0,6.8,0.8,9.5,2.5
				c2.7,1.6,4.8,3.9,6.3,6.9c2.9,5.7,4.4,12.9,4.4,21.5c0,5.5-0.6,10.4-1.7,14.6c-1.2,4.2-2.7,7.5-4.7,9.9c-4.1,4.9-9,7.3-14.8,7.3
				c-2.4,0-4.8-0.4-7-1.3c-2.2-0.8-3.9-1.7-5-2.5c-1.1-0.8-2.4-1.9-3.9-3.3l5.8-9.5c0.3,0.3,0.8,0.8,1.4,1.3
				c0.6,0.6,1.7,1.3,3.3,2.2C428.5,426.9,430.1,427.4,431.5,427.4z M433.1,405.6c2.3,0,4.2-0.8,5.8-2.3c1.5-1.6,2.3-3.6,2.3-6.2
				c0-2.5-0.7-4.7-2.2-6.6c-1.5-1.8-3.3-2.8-5.6-2.8c-2.2,0-4,0.8-5.5,2.5c-1.4,1.6-2.1,3.7-2.1,6.3c0,2.5,0.6,4.7,1.9,6.5
				C429,404.7,430.8,405.6,433.1,405.6z"/>
		</g>
		<g class="st5">
			<g>
				<g>
					<linearGradient id="SVGID_36_" gradientUnits="userSpaceOnUse" x1="371.4711" y1="389.7424" x2="414.9412" y2="389.7424">
						<stop  offset="0" style="stop-color:#FFDBE7"/>
						<stop  offset="8.496960e-02" style="stop-color:#F5D3DE"/>
						<stop  offset="0.227" style="stop-color:#DCBDC7"/>
						<stop  offset="0.4086" style="stop-color:#B299A1"/>
						<stop  offset="0.6228" style="stop-color:#77666C"/>
						<stop  offset="0.8616" style="stop-color:#2E272A"/>
						<stop  offset="1" style="stop-color:#000000"/>
					</linearGradient>
					<path class="st38" d="M385.9,396.9c-0.3-0.8-0.4-1.6-0.4-2.4c0-2.1,0.8-3.9,2.3-5.3c1.5-1.4,3.3-2.1,5.5-2.1
						c2.1,0,3.9,0.7,5.5,2.1c1.5,1.4,2.3,3.2,2.3,5.3c0,2.1-0.8,3.9-2.3,5.3c-0.1,0.1-0.2,0.2-0.4,0.3c0.9,0.2,1.8,0.5,2.7,0.7
						c2.9,0.8,5.9,1.6,8.8,2.4c2-2.9,3.1-6.2,3.1-9.9c0-4.8-1.9-8.8-5.6-12c-3.7-3.3-8.4-4.9-14.1-4.9c-5.6,0-10.4,1.6-14.1,4.9
						c-3.8,3.3-5.7,7.2-5.7,12c0,0.2,0,0.5,0,0.7C377.6,394.9,381.7,395.9,385.9,396.9z"/>
				</g>
			</g>
		</g>
		<g class="st5">
			<linearGradient id="SVGID_37_" gradientUnits="userSpaceOnUse" x1="414.9412" y1="396.5839" x2="453.6153" y2="396.5839">
				<stop  offset="0" style="stop-color:#FFDBE7"/>
				<stop  offset="8.496960e-02" style="stop-color:#F5D3DE"/>
				<stop  offset="0.227" style="stop-color:#DCBDC7"/>
				<stop  offset="0.4086" style="stop-color:#B299A1"/>
				<stop  offset="0.6228" style="stop-color:#77666C"/>
				<stop  offset="0.8616" style="stop-color:#2E272A"/>
				<stop  offset="1" style="stop-color:#000000"/>
			</linearGradient>
			<path class="st39" d="M449.6,415.6c1.1,0.4,2.2,0.8,3.4,1.2c0.5-2.9,0.7-6.2,0.7-9.6c0-8.6-1.5-15.8-4.4-21.5
				c-1.5-2.9-3.6-5.2-6.3-6.9c-2.7-1.6-5.9-2.5-9.5-2.5c-5.3,0-9.7,1.9-13.2,5.6c-3.5,3.7-5.2,8.7-5.2,14.8c0,3,0.4,5.8,1.2,8.2
				C427.4,408.2,438.6,411.7,449.6,415.6z M427.9,390.2c1.4-1.6,3.2-2.5,5.5-2.5c2.2,0,4.1,0.9,5.6,2.8c1.5,1.9,2.2,4,2.2,6.6
				c0,2.5-0.8,4.6-2.3,6.2c-1.5,1.6-3.5,2.3-5.8,2.3c-2.3,0-4.1-0.9-5.4-2.6c-1.3-1.8-1.9-3.9-1.9-6.5
				C425.8,393.9,426.5,391.8,427.9,390.2z"/>
		</g>
		<g>
			<path class="st40" d="M409.8,447v25.5h-5.9V462h-11.6v10.5h-5.9V447h5.9V457h11.6V447H409.8z"/>
			<path class="st40" d="M432.1,472.5l-4.9-7.1h-0.3h-5.1v7.1h-5.9V447h11c6.8,0,11.1,3.5,11.1,9.3c0,3.8-1.9,6.6-5.2,8l5.7,8.2
				H432.1z M426.6,451.8h-4.8v8.9h4.8c3.6,0,5.4-1.7,5.4-4.4C432,453.4,430.2,451.8,426.6,451.8z"/>
		</g>
		<g class="st5">
			<linearGradient id="SVGID_38_" gradientUnits="userSpaceOnUse" x1="386.4331" y1="451.4336" x2="409.8159" y2="451.4336">
				<stop  offset="0" style="stop-color:#FFDBE7"/>
				<stop  offset="8.496960e-02" style="stop-color:#F5D3DE"/>
				<stop  offset="0.227" style="stop-color:#DCBDC7"/>
				<stop  offset="0.4086" style="stop-color:#B299A1"/>
				<stop  offset="0.6228" style="stop-color:#77666C"/>
				<stop  offset="0.8616" style="stop-color:#2E272A"/>
				<stop  offset="1" style="stop-color:#000000"/>
			</linearGradient>
			<rect x="403.9" y="447" class="st41" width="5.9" height="8.9"/>
			<linearGradient id="SVGID_39_" gradientUnits="userSpaceOnUse" x1="386.4331" y1="451.4336" x2="409.8159" y2="451.4336">
				<stop  offset="0" style="stop-color:#FFDBE7"/>
				<stop  offset="8.496960e-02" style="stop-color:#F5D3DE"/>
				<stop  offset="0.227" style="stop-color:#DCBDC7"/>
				<stop  offset="0.4086" style="stop-color:#B299A1"/>
				<stop  offset="0.6228" style="stop-color:#77666C"/>
				<stop  offset="0.8616" style="stop-color:#2E272A"/>
				<stop  offset="1" style="stop-color:#000000"/>
			</linearGradient>
			<rect x="386.4" y="447" class="st42" width="5.9" height="8.9"/>
			<linearGradient id="SVGID_40_" gradientUnits="userSpaceOnUse" x1="415.8579" y1="451.4336" x2="438.44" y2="451.4336">
				<stop  offset="0" style="stop-color:#FFDBE7"/>
				<stop  offset="8.496960e-02" style="stop-color:#F5D3DE"/>
				<stop  offset="0.227" style="stop-color:#DCBDC7"/>
				<stop  offset="0.4086" style="stop-color:#B299A1"/>
				<stop  offset="0.6228" style="stop-color:#77666C"/>
				<stop  offset="0.8616" style="stop-color:#2E272A"/>
				<stop  offset="1" style="stop-color:#000000"/>
			</linearGradient>
			<path class="st43" d="M421.8,455.9v-4.1h4.8c3.5,0,5.3,1.5,5.4,4.1h6c-0.2-5.5-4.4-8.9-11.1-8.9h-11v8.9H421.8z"/>
		</g>
	</g>
	<g>
		<path class="st44" d="M164.5,456.3c0,5.7-4.3,9.3-11.1,9.3h-5.2v7.1h-5.9V447h11.1C160.2,447,164.5,450.5,164.5,456.3z
			 M158.5,456.3c0-2.8-1.8-4.5-5.5-4.5h-4.8v8.9h4.8C156.6,460.7,158.5,459.1,158.5,456.3z"/>
		<path class="st44" d="M191.6,458.6v14h-5.9v-6.1H174v6.1h-5.9v-14c0-7.8,4.7-12,11.8-12S191.6,450.8,191.6,458.6z M185.7,461.7
			V458c0-4.4-2.3-6.4-5.9-6.4c-3.6,0-5.9,2.1-5.9,6.4v3.7H185.7z"/>
		<path class="st44" d="M219.7,447v17.6c0,7.8-4.6,12-12.1,12c-4.5,0-8.1-1.3-10.6-3.4l2.3-4.4c2.3,1.9,5.1,2.8,8.1,2.8
			c4.2,0,6.3-2.1,6.3-6.7v-1.6c-1.7,2.1-4.2,3.1-7.2,3.1c-6.4,0-10.1-3.8-10.1-10.7V447h5.9v8.4c0,4.1,2,6.1,5.5,6.1
			c3.5,0,6-1.9,6-6.5v-8H219.7z"/>
	</g>
	<g class="st5">
		<linearGradient id="SVGID_41_" gradientUnits="userSpaceOnUse" x1="142.2591" y1="453.1973" x2="164.4788" y2="453.1973">
			<stop  offset="0" style="stop-color:#FFDBE7"/>
			<stop  offset="8.496960e-02" style="stop-color:#F5D3DE"/>
			<stop  offset="0.227" style="stop-color:#DCBDC7"/>
			<stop  offset="0.4086" style="stop-color:#B299A1"/>
			<stop  offset="0.6228" style="stop-color:#77666C"/>
			<stop  offset="0.8616" style="stop-color:#2E272A"/>
			<stop  offset="1" style="stop-color:#000000"/>
		</linearGradient>
		<path class="st45" d="M148.2,459.4v-7.6h4.8c3.6,0,5.5,1.6,5.5,4.5c0,1.3-0.4,2.4-1.2,3.1h6.7c0.3-0.9,0.5-2,0.5-3.1
			c0-5.7-4.3-9.3-11.1-9.3h-11.1v12.4H148.2z"/>
		<linearGradient id="SVGID_42_" gradientUnits="userSpaceOnUse" x1="168.1087" y1="452.9776" x2="191.6097" y2="452.9776">
			<stop  offset="0" style="stop-color:#FFDBE7"/>
			<stop  offset="8.496960e-02" style="stop-color:#F5D3DE"/>
			<stop  offset="0.227" style="stop-color:#DCBDC7"/>
			<stop  offset="0.4086" style="stop-color:#B299A1"/>
			<stop  offset="0.6228" style="stop-color:#77666C"/>
			<stop  offset="0.8616" style="stop-color:#2E272A"/>
			<stop  offset="1" style="stop-color:#000000"/>
		</linearGradient>
		<path class="st46" d="M174,459.4V458c0-4.4,2.3-6.4,5.9-6.4c3.5,0,5.9,2.1,5.9,6.4v1.3h5.9v-0.8c0-7.8-4.7-12-11.8-12
			s-11.8,4.2-11.8,12v0.8H174z"/>
		<linearGradient id="SVGID_43_" gradientUnits="userSpaceOnUse" x1="196.3733" y1="453.1973" x2="219.6546" y2="453.1973">
			<stop  offset="0" style="stop-color:#FFDBE7"/>
			<stop  offset="8.496960e-02" style="stop-color:#F5D3DE"/>
			<stop  offset="0.227" style="stop-color:#DCBDC7"/>
			<stop  offset="0.4086" style="stop-color:#B299A1"/>
			<stop  offset="0.6228" style="stop-color:#77666C"/>
			<stop  offset="0.8616" style="stop-color:#2E272A"/>
			<stop  offset="1" style="stop-color:#000000"/>
		</linearGradient>
		<path class="st47" d="M219.7,459.4V447h-5.9v8c0,1.9-0.5,3.4-1.2,4.4H219.7z"/>
		<linearGradient id="SVGID_44_" gradientUnits="userSpaceOnUse" x1="196.3733" y1="453.1973" x2="219.6546" y2="453.1973">
			<stop  offset="0" style="stop-color:#FFDBE7"/>
			<stop  offset="8.496960e-02" style="stop-color:#F5D3DE"/>
			<stop  offset="0.227" style="stop-color:#DCBDC7"/>
			<stop  offset="0.4086" style="stop-color:#B299A1"/>
			<stop  offset="0.6228" style="stop-color:#77666C"/>
			<stop  offset="0.8616" style="stop-color:#2E272A"/>
			<stop  offset="1" style="stop-color:#000000"/>
		</linearGradient>
		<path class="st48" d="M203.4,459.4c-0.7-1-1.1-2.3-1.1-4V447h-5.9v8.7c0,1.3,0.1,2.6,0.4,3.7H203.4z"/>
	</g>
	<g>
		<g>
			<g>
				<linearGradient id="SVGID_45_" gradientUnits="userSpaceOnUse" x1="43.8968" y1="98.2934" x2="134.4022" y2="98.2934">
					<stop  offset="0" style="stop-color:#013D7E"/>
					<stop  offset="0.2404" style="stop-color:#0D71AA"/>
					<stop  offset="0.4771" style="stop-color:#179DCF"/>
					<stop  offset="0.6883" style="stop-color:#1EBCE9"/>
					<stop  offset="0.8663" style="stop-color:#22CFF9"/>
					<stop  offset="0.9897" style="stop-color:#24D6FF"/>
				</linearGradient>
				<path class="st49" d="M134.4,78.3c0-0.6,0-1.3,0-1.9v-0.5h0C133.1,52,113.3,33,89.2,33c-25,0-45.3,20.3-45.3,45.3
					s20.3,45.3,45.3,45.3c5.6,0,13-1.8,17.2-7c0.4-0.7,0.8-2.9,0.8-7.4V87.7c-3.4,6.5-10.2,10.9-18,10.9c-11.2,0-20.3-9.1-20.3-20.3
					S78,58,89.2,58c10.4,0,19,7.8,20.1,17.9h0.1v33.2c0,11.7-5.3,18.6-9.8,22.4c-6.6,5.6-15.9,8.1-24.3,6.7c-3.3-0.6-6.3-1.6-9-2.8
					c-5-2.4-11.1-1.2-14.8,3c-5.4,6.1-3.5,15.8,3.8,19.4c4.9,2.4,10.2,4.1,15.7,5c2.9,0.5,5.9,0.7,8.9,0.7c12.9,0,25.7-4.6,35.7-13
					c12.1-10.2,18.7-24.9,18.7-41.5V80.3C134.4,79.6,134.4,79,134.4,78.3z"/>
				<g>
					<linearGradient id="SVGID_46_" gradientUnits="userSpaceOnUse" x1="102.211" y1="170.6287" x2="102.211" y2="45.4085">
						<stop  offset="0" style="stop-color:#013D7E"/>
						<stop  offset="0.2404" style="stop-color:#0D71AA"/>
						<stop  offset="0.4771" style="stop-color:#179DCF"/>
						<stop  offset="0.6883" style="stop-color:#1EBCE9"/>
						<stop  offset="0.8663" style="stop-color:#22CFF9"/>
						<stop  offset="0.9897" style="stop-color:#24D6FF"/>
					</linearGradient>
					<path class="st50" d="M134.4,76.4v-0.5h0C133.1,52,113.3,33,89.2,33c-6.8,0-13.3,1.5-19.1,4.3c18.2,2.4,33,15.6,37.8,33
						c0.8,1.8,1.3,3.7,1.5,5.7h0.1v33.2c0,0.8,0,1.5-0.1,2.3v1.6c0,16.6-6.6,31.3-18.7,41.5c-4.5,3.8-9.6,6.8-15,9
						c1.4,0.1,2.9,0.2,4.3,0.2c12.9,0,25.7-4.6,35.7-13c12.1-10.2,18.7-24.9,18.7-41.5V80.3c0-0.7,0-1.3,0-2
						C134.4,77.6,134.4,77,134.4,76.4z"/>
				</g>
				<linearGradient id="SVGID_47_" gradientUnits="userSpaceOnUse" x1="105.7082" y1="35.112" x2="74.1908" y2="121.9334">
					<stop  offset="0" style="stop-color:#013D7E"/>
					<stop  offset="0.2404" style="stop-color:#0D71AA"/>
					<stop  offset="0.4771" style="stop-color:#179DCF"/>
					<stop  offset="0.6883" style="stop-color:#1EBCE9"/>
					<stop  offset="0.8663" style="stop-color:#22CFF9"/>
					<stop  offset="0.9897" style="stop-color:#24D6FF"/>
				</linearGradient>
				<path class="st51" d="M134.4,76.4v-0.5h0C133.1,52,113.3,33,89.2,33c-25,0-45.3,20.3-45.3,45.3c0,5.3,0.9,10.5,2.6,15.2
					c6.3,17.5,23,30,42.6,30c0.4,0,0.9,0,1.3,0c3.1-0.2,6.6-0.9,9.7-2.3c2.5-1.3,4.7-3.1,6.4-5.3c0.3-1.1,0.6-3.2,0.6-6.8V91.3
					c-0.4-0.5-0.8-1.1-1.2-1.5c-3.7,5.3-9.8,8.8-16.7,8.8c-6,0-11.4-2.6-15.1-6.8c-3.2-3.6-5.1-8.3-5.1-13.5
					c0-10.3,7.7-18.8,17.7-20.1c0.9-0.1,1.7-0.2,2.6-0.2c0.1,0,0.1,0,0.2,0c0.5,0,0.9,0,1.4,0c20.8,0,38.3,14.1,43.6,33.2V80.3
					c0-0.7,0-1.3,0-2C134.4,77.6,134.4,77,134.4,76.4z"/>
				<g>
					<linearGradient id="SVGID_48_" gradientUnits="userSpaceOnUse" x1="76.5034" y1="46.259" x2="83.6395" y2="129.5127">
						<stop  offset="1.030900e-02" style="stop-color:#24D6FF"/>
						<stop  offset="0.3533" style="stop-color:#19A4D5"/>
						<stop  offset="1" style="stop-color:#013D7E"/>
					</linearGradient>
					<path class="st52" d="M70.9,99.3c-1.7-4.8-2.6-9.9-2.6-15.2c0-3.2,0.3-6.3,1-9.4c0.1-0.8,0.3-1.5,0.5-2.2
						c5-18.7,21.6-32.7,41.7-33.6c-6.6-3.7-14.1-5.9-22.2-5.9c-25,0-45.3,20.3-45.3,45.3c0,5.3,0.9,10.5,2.6,15.2
						c6.3,17.5,23,30,42.6,30c0.4,0,0.9,0,1.3,0c0.2,0,0.5,0,0.7-0.1C81.8,118.1,74.5,109.6,70.9,99.3z"/>
				</g>
			</g>
		</g>
		<g>
			<g>
				<g>
					<path class="st4" d="M146.1,45.3c3.8-3.3,8.5-4.9,14.1-4.9c5.6,0,10.3,1.6,14.1,4.9c3.7,3.3,5.6,7.3,5.6,12
						c0,4.8-1.7,8.9-5,12.3c4.7,4,7.1,9.2,7.1,15.6c0,5.4-2,10-6,13.8c-4,3.7-9.3,5.6-15.7,5.6c-6.5,0-11.7-1.9-15.7-5.6
						c-4-3.7-6-8.3-6-13.8c0-6.4,2.4-11.7,7.1-15.6c-3.4-3.5-5.1-7.6-5.1-12.3C140.4,52.5,142.3,48.5,146.1,45.3z M154,91
						c1.9,1.4,4,2.1,6.2,2.1c2.2,0,4.3-0.7,6.2-2.1c1.9-1.4,2.8-3.4,2.8-6.1c0-2.7-0.9-4.7-2.8-6.1c-1.8-1.4-3.9-2.1-6.3-2.1
						c-2.3,0-4.4,0.7-6.3,2.1c-1.8,1.4-2.8,3.5-2.8,6.1C151.2,87.5,152.1,89.6,154,91z M154.8,63.8c1.5,1.4,3.4,2.1,5.4,2.1
						c2.1,0,3.9-0.7,5.4-2.1c1.5-1.4,2.3-3.2,2.3-5.3c0-2.1-0.8-3.9-2.3-5.3c-1.5-1.4-3.3-2.1-5.5-2.1c-2.1,0-3.9,0.7-5.5,2.1
						c-1.5,1.4-2.3,3.2-2.3,5.3C152.5,60.7,153.3,62.4,154.8,63.8z"/>
				</g>
			</g>
		</g>
		<g>
			<path class="st4" d="M198.5,91.5c3.2,0,5.7-1.3,7.5-3.8c1.8-2.5,2.8-5.9,3.2-10.3c-3.2,2.5-6.6,3.7-10.2,3.7
				c-4.9,0-8.9-1.9-12.1-5.6c-3.2-3.7-4.9-8.7-4.9-14.8c0-6.1,1.7-11.1,5.2-14.8c3.5-3.7,7.9-5.6,13.2-5.6c3.7,0,6.8,0.8,9.5,2.5
				c2.7,1.6,4.8,3.9,6.3,6.9c2.9,5.7,4.4,12.9,4.4,21.5c0,5.5-0.6,10.4-1.7,14.6c-1.2,4.2-2.7,7.5-4.7,9.9c-4.1,4.9-9,7.3-14.8,7.3
				c-2.4,0-4.8-0.4-7-1.3c-2.2-0.8-3.9-1.7-5-2.5c-1.1-0.8-2.4-1.9-3.9-3.3l5.8-9.5c0.3,0.3,0.8,0.8,1.4,1.3
				c0.6,0.6,1.7,1.3,3.3,2.2C195.5,91,197.1,91.5,198.5,91.5z M200.1,69.6c2.3,0,4.2-0.8,5.8-2.3c1.5-1.6,2.3-3.6,2.3-6.2
				c0-2.5-0.7-4.7-2.2-6.6c-1.5-1.8-3.3-2.8-5.6-2.8c-2.2,0-4,0.8-5.5,2.5c-1.4,1.6-2.1,3.7-2.1,6.3c0,2.5,0.6,4.7,1.9,6.5
				C196,68.7,197.8,69.6,200.1,69.6z"/>
		</g>
		<g class="st5">
			<g>
				<g>
					<linearGradient id="SVGID_49_" gradientUnits="userSpaceOnUse" x1="138.4832" y1="53.8139" x2="181.9533" y2="53.8139">
						<stop  offset="0" style="stop-color:#FFDBE7"/>
						<stop  offset="8.496960e-02" style="stop-color:#F5D3DE"/>
						<stop  offset="0.227" style="stop-color:#DCBDC7"/>
						<stop  offset="0.4086" style="stop-color:#B299A1"/>
						<stop  offset="0.6228" style="stop-color:#77666C"/>
						<stop  offset="0.8616" style="stop-color:#2E272A"/>
						<stop  offset="1" style="stop-color:#000000"/>
					</linearGradient>
					<path class="st53" d="M152.9,61c-0.3-0.8-0.4-1.6-0.4-2.4c0-2.1,0.8-3.9,2.3-5.3c1.5-1.4,3.3-2.1,5.5-2.1
						c2.1,0,3.9,0.7,5.5,2.1c1.5,1.4,2.3,3.2,2.3,5.3c0,2.1-0.8,3.9-2.3,5.3c-0.1,0.1-0.2,0.2-0.4,0.3c0.9,0.2,1.8,0.5,2.7,0.7
						c2.9,0.8,5.9,1.6,8.8,2.4c2-2.9,3.1-6.2,3.1-9.9c0-4.8-1.9-8.8-5.6-12c-3.7-3.3-8.4-4.9-14.1-4.9c-5.6,0-10.4,1.6-14.1,4.9
						c-3.8,3.3-5.7,7.2-5.7,12c0,0.2,0,0.5,0,0.7C144.6,58.9,148.8,59.9,152.9,61z"/>
				</g>
			</g>
		</g>
		<g class="st5">
			<linearGradient id="SVGID_50_" gradientUnits="userSpaceOnUse" x1="181.9533" y1="60.6554" x2="220.6274" y2="60.6554">
				<stop  offset="0" style="stop-color:#FFDBE7"/>
				<stop  offset="8.496960e-02" style="stop-color:#F5D3DE"/>
				<stop  offset="0.227" style="stop-color:#DCBDC7"/>
				<stop  offset="0.4086" style="stop-color:#B299A1"/>
				<stop  offset="0.6228" style="stop-color:#77666C"/>
				<stop  offset="0.8616" style="stop-color:#2E272A"/>
				<stop  offset="1" style="stop-color:#000000"/>
			</linearGradient>
			<path class="st54" d="M216.6,79.7c1.1,0.4,2.2,0.8,3.4,1.2c0.5-2.9,0.7-6.2,0.7-9.6c0-8.6-1.5-15.8-4.4-21.5
				c-1.5-2.9-3.6-5.2-6.3-6.9c-2.7-1.6-5.9-2.5-9.5-2.5c-5.3,0-9.7,1.9-13.2,5.6c-3.5,3.7-5.2,8.7-5.2,14.8c0,3,0.4,5.8,1.2,8.2
				C194.4,72.2,205.6,75.7,216.6,79.7z M194.9,54.2c1.4-1.6,3.2-2.5,5.5-2.5c2.2,0,4.1,0.9,5.6,2.8c1.5,1.9,2.2,4,2.2,6.6
				c0,2.5-0.8,4.6-2.3,6.2c-1.5,1.6-3.5,2.3-5.8,2.3c-2.3,0-4.1-0.9-5.4-2.6c-1.3-1.8-1.9-3.9-1.9-6.5
				C192.8,58,193.5,55.9,194.9,54.2z"/>
		</g>
	</g>
	<g>
		<g>
			<path class="st30" d="M178,111.3v27.1h-6.4v-11.1H159v11.1h-6.4v-27.1h6.4V122h12.6v-10.7H178z"/>
			<path class="st30" d="M202.2,138.4l-5.3-7.6h-0.3h-5.6v7.6h-6.4v-27.1h12c7.4,0,12,3.8,12,9.8c0,4.1-2.1,7-5.7,8.6l6.2,8.7H202.2
				z M196.2,116.4h-5.2v9.4h5.2c3.9,0,5.9-1.8,5.9-4.7C202.1,118.2,200.1,116.4,196.2,116.4z"/>
		</g>
	</g>
	<g>
		<g>
			<path class="st30" d="M131,159.7l1.2-3c1.3,1,3.3,1.8,5.1,1.8c2.1,0,3-0.8,3-1.8c0-3.2-9.1-1-9.1-7.3c0-2.9,2.1-5.3,6.6-5.3
				c2,0,4,0.5,5.4,1.5l-1.1,3c-1.4-0.9-2.9-1.3-4.3-1.3c-2.1,0-3,0.9-3,1.9c0,3.1,9.1,1,9.1,7.2c0,2.8-2.2,5.3-6.6,5.3
				C134.9,161.7,132.4,160.9,131,159.7z"/>
			<path class="st30" d="M145.3,154.8c0-3.9,2.8-6.7,6.6-6.7c3.8,0,6.6,2.8,6.6,6.7c0,3.9-2.8,6.7-6.6,6.7
				C148.1,161.6,145.3,158.8,145.3,154.8z M155,154.8c0-2.3-1.3-3.6-3.1-3.6c-1.7,0-3.1,1.4-3.1,3.6c0,2.3,1.3,3.6,3.1,3.6
				C153.7,158.4,155,157.1,155,154.8z"/>
			<path class="st30" d="M160.8,157v-13.7h3.5v13.5c0,1.1,0.5,1.7,1.5,1.7c0.4,0,0.8-0.1,1-0.2l0.2,2.9c-0.6,0.2-1.2,0.3-1.8,0.3
				C162.4,161.6,160.8,160,160.8,157z"/>
			<path class="st30" d="M180.7,148.3v13.1h-3.3v-1.6c-0.9,1.1-2.3,1.7-3.7,1.7c-3,0-5.1-1.8-5.1-5.9v-7.4h3.5v6.8
				c0,2.2,0.9,3.2,2.4,3.2c1.6,0,2.8-1.1,2.8-3.5v-6.5H180.7z"/>
			<path class="st30" d="M191.2,160.7c-0.7,0.6-1.8,0.8-2.8,0.8c-2.9,0-4.5-1.6-4.5-4.7v-11.5h3.5v3.2h3v2.9h-3v5.3
				c0,1.1,0.5,1.7,1.5,1.7c0.5,0,1-0.2,1.4-0.5L191.2,160.7z"/>
			<path class="st30" d="M192.7,144.4c0-1.2,0.9-2.1,2.2-2.1s2.2,0.9,2.2,2c0,1.3-0.9,2.2-2.2,2.2S192.7,145.6,192.7,144.4z
				 M193.1,148.3h3.5v13.1h-3.5V148.3z"/>
			<path class="st30" d="M198.9,154.8c0-3.9,2.8-6.7,6.6-6.7c3.8,0,6.6,2.8,6.6,6.7c0,3.9-2.8,6.7-6.6,6.7
				C201.7,161.6,198.9,158.8,198.9,154.8z M208.6,154.8c0-2.3-1.3-3.6-3.1-3.6c-1.7,0-3.1,1.4-3.1,3.6c0,2.3,1.3,3.6,3.1,3.6
				C207.3,158.4,208.6,157.1,208.6,154.8z"/>
			<path class="st30" d="M226.7,153.9v7.5h-3.5v-6.9c0-2.1-0.9-3.1-2.4-3.1c-1.7,0-2.9,1.1-2.9,3.5v6.5h-3.5v-13.1h3.3v1.5
				c0.9-1.1,2.3-1.7,4-1.7C224.5,148.1,226.7,149.9,226.7,153.9z"/>
		</g>
	</g>
	<rect x="44" y="561.6" class="st55" width="39.8" height="39.8"/>
	<rect x="280.2" y="625.3" class="st56" width="39.8" height="39.8"/>
	<rect x="44" y="630.1" class="st57" width="39.8" height="39.8"/>
	<rect x="280.2" y="561.6" class="st58" width="39.8" height="39.8"/>
	<g>
		<path d="M104.3,592.4l0.9-6.8h-2.8v-2h3.1l0.7-5h-3v-2h3.3l0.9-6.6h2l-0.9,6.6h3.6l0.9-6.6h2l-0.9,6.6h2.8v2h-3.1l-0.6,5h3v2h-3.3
			l-0.9,6.8h-2.1l0.9-6.8h-3.6l-0.9,6.8H104.3z M111.1,583.6l0.7-5h-3.6l-0.7,5H111.1z"/>
		<path d="M121,592.4V578h-2.3v-2.3h2.3v-0.8c0-2.3,0.5-4.5,1.9-5.8c1.1-1.1,2.7-1.6,4-1.6c1.1,0,2.1,0.2,2.6,0.5l-0.5,2.3
			c-0.5-0.2-1-0.4-1.9-0.4c-2.6,0-3.2,2.3-3.2,4.9v0.9h4v2.3h-4v14.4H121z"/>
		<path d="M129.8,592.4v-1.9l2.4-2.3c5.7-5.5,8.3-8.4,8.3-11.8c0-2.3-1.1-4.4-4.5-4.4c-2,0-3.7,1.1-4.8,1.9l-1-2.1
			c1.6-1.3,3.8-2.3,6.3-2.3c4.8,0,6.8,3.3,6.8,6.5c0,4.1-3,7.5-7.7,12l-1.8,1.7v0.1h10v2.5H129.8z"/>
		<path d="M160.3,572.1c-0.7,0-1.4,0-2.3,0.2c-4.8,0.8-7.3,4.2-7.8,8h0.1c1.1-1.5,3-2.7,5.5-2.7c4,0,6.8,2.9,6.8,7.3
			c0,4.1-2.8,7.9-7.5,7.9c-4.8,0-7.9-3.7-7.9-9.6c0-4.4,1.6-7.9,3.8-10.1c1.9-1.8,4.3-3,7.2-3.3c0.9-0.1,1.6-0.2,2.2-0.2V572.1z
			 M159.5,585c0-3.2-1.8-5.1-4.6-5.1c-1.8,0-3.6,1.1-4.4,2.8c-0.2,0.3-0.3,0.8-0.3,1.3c0.1,3.7,1.8,6.5,4.9,6.5
			C157.7,590.4,159.5,588.2,159.5,585z"/>
		<path d="M177.9,588.3c0,1.4,0.1,2.9,0.2,4h-2.7l-0.3-2.1h-0.1c-0.9,1.3-2.7,2.5-5.1,2.5c-3.3,0-5.1-2.4-5.1-4.8
			c0-4,3.6-6.2,10-6.2v-0.4c0-1.4-0.4-3.9-3.8-3.9c-1.6,0-3.2,0.5-4.3,1.2l-0.7-2c1.4-0.9,3.4-1.4,5.5-1.4c5.1,0,6.3,3.5,6.3,6.8
			V588.3z M175,583.9c-3.3-0.1-7.1,0.5-7.1,3.7c0,2,1.3,2.9,2.9,2.9c2.2,0,3.6-1.4,4.1-2.8c0.1-0.3,0.1-0.7,0.1-1V583.9z"/>
		<path d="M182.6,588.9c0.9,0.6,2.8,1.4,5,1.4c3.9,0,5.1-2.5,5.1-4.3c0-3.1-2.9-4.5-5.8-4.5h-1.7v-2.3h1.7c2.2,0,5-1.1,5-3.8
			c0-1.8-1.1-3.4-3.9-3.4c-1.8,0-3.5,0.8-4.5,1.5l-0.8-2.2c1.2-0.9,3.5-1.7,5.9-1.7c4.4,0,6.5,2.6,6.5,5.3c0,2.3-1.4,4.3-4.2,5.3
			v0.1c2.8,0.5,5,2.6,5,5.7c0,3.6-2.8,6.7-8.2,6.7c-2.5,0-4.7-0.8-5.8-1.6L182.6,588.9z"/>
		<path d="M214.9,567.9v20.2c0,1.4,0.1,3.1,0.1,4.3h-2.7l-0.1-2.9h-0.1c-0.9,1.9-2.9,3.3-5.6,3.3c-4.1,0-7.2-3.4-7.2-8.5
			c0-5.6,3.4-9,7.5-9c2.6,0,4.3,1.2,5,2.5h0.1v-10H214.9z M211.9,582.5c0-0.4,0-0.9-0.1-1.3c-0.5-1.9-2.1-3.5-4.4-3.5
			c-3.1,0-5,2.7-5,6.4c0,3.4,1.7,6.2,5,6.2c2,0,3.9-1.4,4.5-3.7c0.1-0.4,0.1-0.8,0.1-1.3V582.5z"/>
	</g>
	<g>
		<path d="M342.9,654.7l0.9-6.8H341v-2h3.1l0.7-5h-3v-2h3.3l0.9-6.6h2l-0.9,6.6h3.6l0.9-6.6h2l-0.9,6.6h2.8v2h-3.1l-0.6,5h3v2h-3.3
			l-0.9,6.8h-2.1l0.9-6.8h-3.6l-0.9,6.8H342.9z M349.8,645.9l0.7-5h-3.6l-0.7,5H349.8z"/>
		<path d="M358.4,654.7v-1.9l2.4-2.3c5.7-5.5,8.3-8.3,8.3-11.7c0-2.3-1.1-4.4-4.5-4.4c-2,0-3.7,1-4.8,1.9l-1-2.1
			c1.6-1.3,3.8-2.3,6.3-2.3c4.8,0,6.9,3.3,6.9,6.5c0,4.1-3,7.5-7.7,12l-1.8,1.7v0.1h10.1v2.5H358.4z"/>
		<path d="M378.8,646.9c0.1,4.1,2.7,5.8,5.7,5.8c2.2,0,3.5-0.4,4.6-0.9l0.5,2.2c-1.1,0.5-2.9,1-5.6,1c-5.1,0-8.2-3.4-8.2-8.4
			s3-9,7.8-9c5.5,0,6.9,4.8,6.9,7.9c0,0.6-0.1,1.1-0.1,1.4H378.8z M387.7,644.8c0-1.9-0.8-4.9-4.2-4.9c-3.1,0-4.4,2.8-4.7,4.9H387.7
			z"/>
		<path d="M394.1,651.2c0.9,0.6,2.9,1.4,5,1.4c3.9,0,5.1-2.5,5.1-4.3c0-3.1-2.9-4.5-5.8-4.5h-1.7v-2.3h1.7c2.2,0,5-1.1,5-3.8
			c0-1.8-1.1-3.4-3.9-3.4c-1.8,0-3.5,0.8-4.5,1.5l-0.8-2.2c1.2-0.9,3.5-1.7,5.9-1.7c4.4,0,6.4,2.6,6.4,5.3c0,2.3-1.4,4.3-4.1,5.3
			v0.1c2.8,0.6,5,2.6,5,5.8c0,3.6-2.8,6.7-8.2,6.7c-2.5,0-4.7-0.8-5.8-1.5L394.1,651.2z"/>
		<path d="M417.7,635.1L417.7,635.1l-4,2.1l-0.6-2.3l4.9-2.6h2.6v22.4h-2.9V635.1z"/>
		<path d="M430.6,652.6c0.7,0.1,1.4,0,2.4-0.1c1.8-0.2,3.4-1,4.7-2.2c1.5-1.3,2.6-3.3,3-6h-0.1c-1.2,1.5-3,2.4-5.3,2.4
			c-4,0-6.6-3-6.6-6.9c0-4.2,3.1-8,7.7-8c4.6,0,7.4,3.7,7.4,9.5c0,4.9-1.7,8.4-3.9,10.5c-1.7,1.7-4.1,2.7-6.5,3
			c-1.1,0.2-2.1,0.2-2.8,0.2V652.6z M431.7,639.7c0,2.8,1.7,4.8,4.3,4.8c2,0,3.6-1,4.4-2.3c0.2-0.3,0.3-0.6,0.3-1.1
			c0-3.8-1.4-6.8-4.6-6.8C433.5,634.2,431.7,636.5,431.7,639.7z"/>
		<path d="M446.5,654.7v-1.9l2.4-2.3c5.7-5.5,8.3-8.3,8.3-11.7c0-2.3-1.1-4.4-4.5-4.4c-2,0-3.7,1-4.8,1.9l-1-2.1
			c1.6-1.3,3.8-2.3,6.3-2.3c4.8,0,6.9,3.3,6.9,6.5c0,4.1-3,7.5-7.7,12l-1.8,1.7v0.1h10.1v2.5H446.5z"/>
	</g>
	<g>
		<path d="M104.3,664.1l0.9-6.8h-2.8v-2h3.1l0.7-5h-3v-2h3.3l0.9-6.6h2l-0.9,6.6h3.6l0.9-6.6h2l-0.9,6.6h2.8v2h-3.1l-0.6,5h3v2h-3.3
			l-0.9,6.8h-2.1l0.9-6.8h-3.6l-0.9,6.8H104.3z M111.1,655.3l0.7-5h-3.6l-0.7,5H111.1z"/>
		<path d="M120.5,660.6c0.9,0.6,2.8,1.4,5,1.4c3.9,0,5.1-2.5,5.1-4.3c0-3.1-2.9-4.5-5.8-4.5H123V651h1.7c2.2,0,5-1.1,5-3.8
			c0-1.8-1.1-3.4-3.9-3.4c-1.8,0-3.5,0.8-4.5,1.5l-0.8-2.2c1.2-0.9,3.5-1.7,5.9-1.7c4.4,0,6.5,2.6,6.5,5.3c0,2.3-1.4,4.3-4.2,5.3
			v0.1c2.8,0.5,5,2.6,5,5.7c0,3.6-2.8,6.7-8.2,6.7c-2.5,0-4.7-0.8-5.8-1.6L120.5,660.6z"/>
		<path d="M146.8,664.1V658h-10.4v-2l10-14.3h3.3v14h3.1v2.3h-3.1v6.1H146.8z M146.8,655.7v-7.5c0-1.2,0-2.3,0.1-3.5l-0.1,0
			c-0.7,1.3-1.2,2.3-1.9,3.3l-5.5,7.7v0.1H146.8z"/>
		<path d="M156.9,662c0.7,0.1,1.4,0,2.4-0.1c1.7-0.2,3.4-1,4.7-2.2c1.5-1.3,2.6-3.3,3-6h-0.1c-1.3,1.6-3,2.4-5.3,2.4
			c-4,0-6.6-3-6.6-6.9c0-4.2,3.1-8,7.7-8c4.6,0,7.4,3.7,7.4,9.5c0,4.9-1.7,8.4-3.9,10.5c-1.7,1.7-4.1,2.7-6.5,3
			c-1.1,0.2-2.1,0.2-2.8,0.2V662z M158,649.1c0,2.8,1.7,4.8,4.3,4.8c2,0,3.6-1,4.4-2.4c0.1-0.3,0.3-0.6,0.3-1.1
			c0-3.8-1.4-6.8-4.6-6.8C159.8,643.6,158,645.9,158,649.1z"/>
		<path d="M186.2,644.3h-8.6l-0.9,5.8c0.5-0.1,1-0.1,1.8-0.1c1.7,0,3.4,0.4,4.8,1.2c1.7,1,3.2,3,3.2,5.8c0,4.4-3.5,7.7-8.3,7.7
			c-2.4,0-4.5-0.7-5.6-1.4l0.8-2.3c0.9,0.6,2.8,1.2,4.8,1.2c2.8,0,5.3-1.9,5.3-4.9c0-2.9-2-5-6.5-5c-1.3,0-2.3,0.1-3.1,0.2l1.4-10.8
			h10.7V644.3z"/>
		<path d="M203.4,663.5c-0.8,0.4-2.6,1-4.8,1c-5,0-8.3-3.4-8.3-8.5c0-5.1,3.5-8.9,9-8.9c1.8,0,3.4,0.4,4.2,0.9l-0.7,2.3
			c-0.7-0.4-1.9-0.8-3.5-0.8c-3.8,0-5.9,2.9-5.9,6.3c0,3.9,2.5,6.2,5.8,6.2c1.7,0,2.8-0.4,3.7-0.8L203.4,663.5z"/>
		<path d="M218.7,660.1c0,1.4,0.1,2.9,0.2,4h-2.7l-0.3-2.1h-0.1c-0.9,1.3-2.7,2.5-5.1,2.5c-3.3,0-5.1-2.4-5.1-4.8
			c0-4,3.6-6.2,10-6.2v-0.4c0-1.4-0.4-3.9-3.8-3.9c-1.6,0-3.2,0.5-4.3,1.2l-0.7-2c1.4-0.9,3.4-1.4,5.5-1.4c5.1,0,6.3,3.5,6.3,6.8
			V660.1z M215.8,655.6c-3.3-0.1-7.1,0.5-7.1,3.7c0,2,1.3,2.9,2.9,2.9c2.2,0,3.6-1.4,4.1-2.8c0.1-0.3,0.1-0.7,0.1-1V655.6z"/>
	</g>
	<g>
		<path d="M340.4,595.4l0.9-6.8h-2.8v-2h3.1l0.7-5h-3v-2h3.3l0.9-6.6h2l-0.9,6.6h3.6l0.9-6.6h2l-0.9,6.6h2.8v2H350l-0.6,5h3v2H349
			l-0.9,6.8h-2.1l0.9-6.8h-3.6l-0.9,6.8H340.4z M347.3,586.6l0.7-5h-3.6l-0.7,5H347.3z"/>
		<path d="M355.9,595.4v-1.9l2.4-2.3c5.7-5.5,8.3-8.4,8.3-11.8c0-2.3-1.1-4.4-4.5-4.4c-2,0-3.7,1.1-4.8,1.9l-1-2.1
			c1.6-1.3,3.8-2.3,6.3-2.3c4.8,0,6.8,3.3,6.8,6.5c0,4.1-3,7.5-7.7,12l-1.8,1.7v0.1h10v2.5H355.9z"/>
		<path d="M380.2,575.8L380.2,575.8l-4,2.1l-0.6-2.3l4.9-2.6h2.6v22.4h-2.9V575.8z"/>
		<path d="M400.7,595.4v-6.1h-10.4v-2l10-14.3h3.3v14h3.1v2.3h-3.1v6.1H400.7z M400.7,586.9v-7.5c0-1.2,0-2.3,0.1-3.5l-0.1,0
			c-0.7,1.3-1.2,2.3-1.9,3.3l-5.5,7.7v0.1H400.7z"/>
		<path d="M423.9,583.9c0,7.6-2.8,11.8-7.8,11.8c-4.4,0-7.3-4.1-7.4-11.5c0-7.5,3.2-11.7,7.8-11.7
			C421.2,572.6,423.9,576.8,423.9,583.9z M411.7,584.3c0,5.8,1.8,9.1,4.6,9.1c3.1,0,4.6-3.6,4.6-9.3c0-5.5-1.4-9.1-4.6-9.1
			C413.7,575,411.7,578.2,411.7,584.3z"/>
		<path d="M428.5,593.2c0.7,0.1,1.4,0,2.4-0.1c1.7-0.2,3.4-1,4.7-2.2c1.5-1.3,2.6-3.3,3-6h-0.1c-1.3,1.6-3,2.4-5.3,2.4
			c-4,0-6.6-3-6.6-6.9c0-4.2,3.1-8,7.7-8c4.6,0,7.4,3.7,7.4,9.5c0,4.9-1.7,8.4-3.9,10.5c-1.7,1.7-4.1,2.7-6.5,3
			c-1.1,0.2-2.1,0.2-2.8,0.2V593.2z M429.6,580.4c0,2.8,1.7,4.8,4.3,4.8c2,0,3.6-1,4.4-2.4c0.1-0.3,0.3-0.6,0.3-1.1
			c0-3.8-1.4-6.8-4.6-6.8C431.4,574.9,429.6,577.2,429.6,580.4z"/>
		<path d="M457.1,591.4c0,1.4,0.1,2.9,0.2,4h-2.7l-0.3-2.1h-0.1c-0.9,1.3-2.7,2.5-5.1,2.5c-3.3,0-5.1-2.4-5.1-4.8
			c0-4,3.6-6.2,10-6.2v-0.4c0-1.4-0.4-3.9-3.8-3.9c-1.6,0-3.2,0.5-4.3,1.2l-0.7-2c1.4-0.9,3.4-1.4,5.5-1.4c5.1,0,6.3,3.5,6.3,6.8
			V591.4z M454.2,586.9c-3.3-0.1-7.1,0.5-7.1,3.7c0,2,1.3,2.9,2.9,2.9c2.2,0,3.6-1.4,4.1-2.8c0.1-0.3,0.1-0.7,0.1-1V586.9z"/>
	</g>
	<g>
		<g>
			<g>
				<g>
					<linearGradient id="SVGID_51_" gradientUnits="userSpaceOnUse" x1="422.2595" y1="137.8027" x2="448.7448" y2="126.3483">
						<stop  offset="0" style="stop-color:#013D7E"/>
						<stop  offset="0.2404" style="stop-color:#0D71AA"/>
						<stop  offset="0.4771" style="stop-color:#179DCF"/>
						<stop  offset="0.6883" style="stop-color:#1EBCE9"/>
						<stop  offset="0.8663" style="stop-color:#22CFF9"/>
						<stop  offset="0.9897" style="stop-color:#24D6FF"/>
					</linearGradient>
					<path class="st59" d="M449.3,135.3c0,0.1,0,0.2,0,0.3C449.2,135.5,449.2,135.4,449.3,135.3c-0.1-0.9-0.2-1.7-0.4-2.5
						c0,0,0-0.1,0-0.1c-1.4-4.4-5.5-7.6-10.3-7.6c-5.8,0-10.5,4.5-10.8,10.2h-2.9c0-6.8,5.5-12.2,12.2-12.2
						C443.8,123.1,449.3,128.5,449.3,135.3z"/>
					<linearGradient id="SVGID_52_" gradientUnits="userSpaceOnUse" x1="450.4109" y1="125.0661" x2="422.1858" y2="136.8587">
						<stop  offset="0" style="stop-color:#013D7E"/>
						<stop  offset="0.2404" style="stop-color:#0D71AA"/>
						<stop  offset="0.4771" style="stop-color:#179DCF"/>
						<stop  offset="0.6883" style="stop-color:#1EBCE9"/>
						<stop  offset="0.8663" style="stop-color:#22CFF9"/>
						<stop  offset="0.9897" style="stop-color:#24D6FF"/>
					</linearGradient>
					<path class="st60" d="M448.8,132.7c-1.4-4.4-5.5-7.6-10.3-7.6c-5.8,0-10.5,4.5-10.8,10.2h-1.6c0.4-6.1,5.4-10.9,11.5-10.9
						C442.9,124.4,447.4,127.9,448.8,132.7z"/>
					<linearGradient id="SVGID_53_" gradientUnits="userSpaceOnUse" x1="444.212" y1="137.9466" x2="437.0859" y2="126.7398">
						<stop  offset="0" style="stop-color:#013D7E"/>
						<stop  offset="0.2404" style="stop-color:#0D71AA"/>
						<stop  offset="0.4771" style="stop-color:#179DCF"/>
						<stop  offset="0.6883" style="stop-color:#1EBCE9"/>
						<stop  offset="0.8663" style="stop-color:#22CFF9"/>
						<stop  offset="0.9897" style="stop-color:#24D6FF"/>
					</linearGradient>
					<path class="st61" d="M447.6,135.3h-2.2c-0.3-4.6-4.1-8.3-8.8-8.3c-0.1,0-0.1,0-0.2,0c-1.8,0-3.4,0.5-4.8,1.4
						c1.7-1.3,3.8-2.1,6.1-2.1C443,126.2,447.2,130.2,447.6,135.3z"/>
					<linearGradient id="SVGID_54_" gradientUnits="userSpaceOnUse" x1="436.6184" y1="131.1363" x2="446.1208" y2="131.1363">
						<stop  offset="0" style="stop-color:#013D7E"/>
						<stop  offset="0.2404" style="stop-color:#0D71AA"/>
						<stop  offset="0.4771" style="stop-color:#179DCF"/>
						<stop  offset="0.6883" style="stop-color:#1EBCE9"/>
						<stop  offset="0.8663" style="stop-color:#22CFF9"/>
						<stop  offset="0.9897" style="stop-color:#24D6FF"/>
					</linearGradient>
					<path class="st62" d="M446.1,135.3h-0.7c-0.3-4.6-4.1-8.3-8.8-8.3c0.1,0,0.1,0,0.2,0C441.6,127,445.6,130.6,446.1,135.3z"/>
				</g>
			</g>
			<path class="st63" d="M436.5,129.2c0,0-0.4-0.9-0.4-1.3c0-0.2,0.2-0.4,0.4-0.4s0.4,0.2,0.4,0.4
				C437,128.3,436.5,129.2,436.5,129.2z"/>
			<path class="st64" d="M431.3,130.6c0,0-0.6-0.1-0.8-0.2c-0.1-0.1-0.2-0.2-0.1-0.4c0.1-0.1,0.2-0.2,0.4-0.1
				C430.9,130.1,431.3,130.6,431.3,130.6z"/>
			<path class="st64" d="M433.5,129.5c0,0-0.5-0.4-0.6-0.6c-0.1-0.1,0-0.3,0.1-0.3c0.1-0.1,0.3,0,0.3,0.1
				C433.4,128.9,433.5,129.5,433.5,129.5z"/>
			<path class="st64" d="M439.7,129.5c0,0,0.1-0.6,0.2-0.8c0.1-0.1,0.2-0.2,0.4-0.1c0.1,0.1,0.2,0.2,0.1,0.4
				C440.2,129.1,439.7,129.5,439.7,129.5z"/>
			<path class="st64" d="M441.6,130.6c0,0,0.4-0.5,0.6-0.6c0.1-0.1,0.3,0,0.3,0.1c0.1,0.1,0,0.3-0.1,0.3
				C442.3,130.6,441.6,130.6,441.6,130.6z"/>
		</g>
		<path class="st4" d="M438.9,131.6l-2.6,2.7c0,0,0,0,0,0c0,0-0.1,0-0.1,0l-2.2-1.6c-0.1-0.1-0.3-0.1-0.5,0.1
			c-0.1,0.1-0.1,0.3,0.1,0.5l2.1,1.6c0,0.3,0.2,0.4,0.5,0.4c0.3,0,0.5-0.2,0.5-0.5c0,0,0,0,0,0l2.6-2.7c0.1-0.1,0.1-0.3,0-0.5
			C439.2,131.5,439,131.5,438.9,131.6z"/>
	</g>
	<g>
		<g>
			<path class="st30" d="M392,133.9l-7.4,19h-5.8l-7.4-19h6.3L382,145l4.3-11.1H392z"/>
			<path class="st30" d="M402,147.6l2.9,3.2c-1.3,1.6-3.3,2.4-6,2.4c-5,0-8.3-3.3-8.3-7.7c0-4.5,3.3-7.7,7.8-7.7
				c4,0,7.4,2.7,7.4,7.6l-9.3,2c0.4,0.9,1.3,1.3,2.5,1.3C400.4,148.7,401.1,148.3,402,147.6z M396.2,144.5l4.4-0.9
				c-0.3-0.9-1-1.5-2-1.5C397.3,142,396.4,142.8,396.2,144.5z"/>
			<path class="st30" d="M407.7,147.5v-14.7h5.6v14.4c0,1,0.5,1.4,1.2,1.4c0.4,0,0.8-0.1,1-0.3l0.2,4.5c-0.8,0.3-1.6,0.4-2.4,0.4
				C409.9,153.2,407.7,151.3,407.7,147.5z"/>
			<path class="st30" d="M432.1,138.1V153h-5.4v-1.2c-0.8,1-2,1.5-3.7,1.5c-3.6,0-6.6-2.9-6.6-7.7c0-4.8,3-7.7,6.6-7.7
				c1.5,0,2.6,0.4,3.5,1.3v-1H432.1z M426.5,145.5c0-1.9-1-2.9-2.2-2.9c-1.2,0-2.2,1-2.2,2.9s1,2.9,2.2,2.9
				C425.5,148.4,426.5,147.4,426.5,145.5z"/>
			<path class="st30" d="M449.5,138.1V153h-5.4v-1.2c-0.8,1-2,1.5-3.7,1.5c-3.6,0-6.6-2.9-6.6-7.7c0-4.8,3-7.7,6.6-7.7
				c1.5,0,2.6,0.4,3.5,1.3v-1H449.5z M444,145.5c0-1.9-1-2.9-2.2-2.9s-2.2,1-2.2,2.9s1,2.9,2.2,2.9S444,147.4,444,145.5z"/>
		</g>
	</g>
</g>
</svg>
